<svg width="105" height="38" viewBox="0 0 105 38" fill="none" xmlns="http://www.w3.org/2000/svg">
<path fill-rule="evenodd" clip-rule="evenodd" d="M13.6103 14.9725C13.6103 15.8793 13.5329 16.8586 13.3778 17.9093C13.2225 18.96 12.936 19.9272 12.5181 20.8105C12.1001 21.6941 11.5212 22.4282 10.781 23.0134C10.0407 23.5983 9.09764 23.8909 7.95141 23.8909C7.04402 23.8909 6.25592 23.6757 5.5874 23.246C4.9188 22.8162 4.35787 22.2193 3.90424 21.4552H3.8325V31.1616H0V13.5844C0.0749749 8.8559 2.73596 6.62567 5.18983 6.1024C6.49468 5.82418 9.53498 5.91572 10.8238 6.94593C11.5544 7.53004 12.2015 8.2151 12.6077 9.09845C13.0134 9.98181 13.2821 10.9432 13.4136 11.9817C13.545 13.0204 13.6103 14.0172 13.6103 14.9725ZM9.5274 14.9725C9.5274 14.4948 9.50353 13.9221 9.45577 13.2533C9.40803 12.5849 9.29469 11.946 9.11559 11.337C8.93657 10.7283 8.65591 10.2089 8.27378 9.77909C7.89178 9.3493 7.3665 9.13413 6.6979 9.13413C6.07722 9.13413 5.58157 9.35511 5.21146 9.79679C4.84122 10.2385 4.55472 10.77 4.35192 11.3906C4.14895 12.0115 4.01163 12.6562 3.93978 13.3247C3.86848 13.9934 3.8325 14.5427 3.8325 14.9725C3.8325 15.4501 3.8564 16.0171 3.90424 16.6739C3.95201 17.3305 4.07126 17.9691 4.26237 18.5897C4.45317 19.2108 4.74 19.7363 5.1221 20.1658C5.5039 20.5956 6.02927 20.8105 6.6979 20.8105C7.41415 20.8105 7.96341 20.6014 8.34552 20.1838C8.72751 19.7659 9.00786 19.2526 9.187 18.6436C9.36599 18.0349 9.46766 17.396 9.49153 16.7273C9.51542 16.0588 9.5274 15.4739 9.5274 14.9725ZM24.7868 10.2089C22.7571 10.2089 21.3543 10.6926 20.5783 11.6595C19.8026 12.6263 19.4144 14.0772 19.4144 16.0112V23.4968H15.5821C15.5821 20.2853 15.5821 17.0741 15.5821 13.8626C15.7015 10.3922 17.0473 8.02399 20.2464 6.81678C20.5608 6.69813 21.708 6.31951 22.8047 6.1934C23.3405 6.132 24.0943 6.05401 24.7868 6.05401V10.2089ZM29.2019 13.9337C29.2019 14.8176 29.3451 15.683 29.6317 16.5304C29.9182 17.3783 30.33 18.1425 30.8674 18.8228C31.4044 19.5032 32.0494 20.0527 32.8014 20.4703C33.5534 20.8879 34.4074 21.097 35.3621 21.097C35.8879 21.097 36.4189 21.0373 36.9562 20.9178C37.4931 20.7989 38.0006 20.6435 38.4782 20.4524V23.2103C37.7381 23.473 36.9858 23.652 36.222 23.7474C35.4575 23.8431 34.6937 23.8909 33.9295 23.8909C32.4493 23.8909 31.1835 23.6343 30.1331 23.1209C29.0821 22.6076 28.2228 21.909 27.5544 21.0251C26.8854 20.142 26.402 19.103 26.1036 17.9093C25.8052 16.7154 25.656 15.4382 25.656 14.0769C25.656 12.9068 25.7873 11.8323 26.0498 10.8533C26.3124 9.8745 26.7246 9.02682 27.2856 8.31051C27.8464 7.59421 28.5691 7.03886 29.4524 6.64503C30.3358 6.2512 31.4105 6.05401 32.6758 6.05401C33.7506 6.05401 34.676 6.22714 35.4515 6.5734C36.2278 6.91966 36.8727 7.39729 37.3858 8.00629C37.8991 8.61474 38.2816 9.34322 38.5321 10.1906C38.7827 11.0383 38.908 11.964 38.908 12.9668V13.9337H29.2019ZM35.2905 11.5342C35.2905 10.6503 35.0399 9.94005 34.5385 9.40296C34.0371 8.86586 33.3327 8.59704 32.4253 8.59704C31.5654 8.59704 30.8552 8.87748 30.2943 9.43891C29.7332 10.0001 29.4046 10.6984 29.3095 11.5342H35.2905ZM48.5878 23.4968H44.863L39.0606 6.44811H43.0366L46.6897 18.1242H46.7617L50.4508 6.44811H54.4262L48.5878 23.4968ZM58.1606 13.9337C58.1606 14.8176 58.3039 15.683 58.5904 16.5304C58.8767 17.3783 59.2893 18.1425 59.8258 18.8228C60.3632 19.5032 61.0082 20.0527 61.7602 20.4703C62.5124 20.8879 63.3662 21.097 64.3212 21.097C64.8464 21.097 65.3777 21.0373 65.915 20.9178C66.4521 20.7989 66.9596 20.6435 67.4375 20.4524V23.2103C66.6972 23.473 65.9449 23.652 65.1807 23.7474C64.4166 23.8431 63.6527 23.8909 62.8885 23.8909C61.4081 23.8909 60.1425 23.6343 59.0918 23.1209C58.0414 22.6076 57.1816 21.909 56.5129 21.0251C55.8444 20.142 55.3607 19.103 55.0625 17.9093C54.7641 16.7154 54.6148 15.4382 54.6148 14.0769C54.6148 12.9068 54.7461 11.8323 55.0089 10.8533C55.2713 9.8745 55.6834 9.02682 56.2446 8.31051C56.8055 7.59421 57.5279 7.03886 58.4112 6.64503C59.2946 6.2512 60.3693 6.05401 61.6349 6.05401C62.7093 6.05401 63.635 6.22714 64.4108 6.5734C65.1865 6.91966 65.8315 7.39729 66.3448 8.00629C66.8581 8.61474 67.2403 9.34322 67.4912 10.1906C67.7417 11.0383 67.8668 11.964 67.8668 12.9668V13.9337H58.1606ZM64.2495 11.5342C64.2495 10.6503 63.9987 9.94005 63.4973 9.40296C62.9961 8.86586 62.2917 8.59704 61.384 8.59704C60.5247 8.59704 59.814 8.87748 59.2531 9.43891C58.6919 10.0001 58.3636 10.6984 58.2679 11.5342H64.2495ZM92.4923 9.20576V17.2649C92.4923 17.742 92.5161 18.208 92.5639 18.6616C92.6112 19.1152 92.6682 19.4537 92.8355 19.8118C93.0025 20.1697 93.2263 20.3276 93.5717 20.5544C93.9177 20.7806 94.4905 20.8163 95.071 20.81C95.6216 20.8039 96.5288 20.8138 96.7909 20.8152C96.8042 20.8152 96.8012 23.4609 96.7948 23.5261C95.6225 23.5305 94.6885 23.5195 93.7097 23.5223C91.9909 23.5272 90.6456 23.5261 89.8217 22.8336C88.9978 22.1414 88.6596 20.9419 88.6596 19.199V9.20577H85.4719V6.44812H88.6596C88.6596 5.09875 88.6596 3.74966 88.6596 2.40084C88.6994 0.962969 90.7018 -0.0321184 92.4923 0.000792645V6.44812H97.3275V9.20577H92.4923" fill="#295182"/>
<path fill-rule="evenodd" clip-rule="evenodd" d="M101.171 18.0322H105V23.4953H99.5371C99.5371 22.3196 99.5371 21.1436 99.5371 19.9676C99.5371 19.2491 99.9912 18.0322 101.171 18.0322Z" fill="#FBC707"/>
<path d="M15.8633 37.2626V31.1206H16.9105L18.6505 36.345L18.6671 36.3455L20.4157 31.1206H21.4445V37.2626H20.8229V31.8596H20.8055L19.0018 37.2626H18.3106L16.5065 31.8596H16.485V37.2626H15.8633" fill="#295182"/>
<path d="M25.0084 35.3412H24.652C24.3361 35.3412 24.0492 35.4007 23.7914 35.5193C23.4407 35.6817 23.2653 35.9209 23.2653 36.2367C23.2653 36.4193 23.3198 36.5678 23.4284 36.682C23.5372 36.7968 23.6812 36.8537 23.8608 36.8537C24.0665 36.8537 24.2622 36.7915 24.4477 36.6668C24.6332 36.5423 24.7665 36.3844 24.8476 36.193C24.9547 35.9438 25.0084 35.6601 25.0084 35.3412ZM25.0258 37.2625V36.7019H25.0084C24.9331 36.8466 24.7998 36.9812 24.6085 37.106C24.3477 37.2769 24.0477 37.3624 23.7087 37.3624C23.3465 37.3624 23.0653 37.2539 22.8654 37.0366C22.6684 36.8278 22.5698 36.5409 22.5698 36.1756C22.5698 35.7323 22.8146 35.3891 23.3045 35.1457C23.6898 34.9546 24.1187 34.8586 24.591 34.8586C24.7737 34.8586 24.9128 34.85 25.0084 34.8326C25.0084 34.3807 24.9997 34.111 24.9823 34.0242C24.9041 33.6301 24.6461 33.4329 24.2086 33.4329C23.6929 33.4329 23.4044 33.6588 23.3436 34.111H22.6698C22.6727 33.7111 22.832 33.4069 23.148 33.1981C23.4204 33.0186 23.7681 32.9287 24.1912 32.9287C25.1388 32.9287 25.6127 33.3823 25.6127 34.2894V37.2625H25.0258Z" fill="#295182"/>
<path d="M29.0298 36.7712V37.3147C28.8299 37.3465 28.6515 37.3625 28.4949 37.3625C28.0895 37.3625 27.7952 37.2815 27.6125 37.1191C27.4155 36.9479 27.3171 36.6642 27.3171 36.2673V33.5329H26.626V33.0243H27.3171V32.0378L27.9299 31.6553V33.0243H29.0644V33.5329H27.9299V36.1409C27.9299 36.6166 28.1595 36.8539 28.6186 36.8539C28.7311 36.8539 28.868 36.8265 29.0298 36.7712Z" fill="#295182"/>
<path d="M30.4418 34.2369H32.1416C32.1416 34.0516 32.0835 33.8823 31.9677 33.7285C31.82 33.5313 31.6084 33.4329 31.3332 33.4329C30.8404 33.4329 30.5436 33.7012 30.4418 34.2369ZM32.7415 36.7365V37.2362C32.4718 37.3206 32.1474 37.3624 31.7677 37.3624C31.0666 37.3624 30.5392 37.1392 30.1857 36.6928C29.8638 36.2904 29.7031 35.7267 29.7031 35.0021C29.7031 33.6199 30.2552 32.9287 31.3592 32.9287C31.8402 32.9287 32.2097 33.0794 32.4674 33.3806C32.7138 33.6649 32.8372 34.0502 32.8372 34.5369V34.7413H30.3984V34.9936C30.3984 35.4339 30.4969 35.8235 30.6941 36.1629C30.9607 36.6234 31.3636 36.8537 31.9024 36.8537C32.1225 36.8537 32.4024 36.8148 32.7415 36.7365Z" fill="#295182"/>
<path d="M33.9414 37.2625V33.0241H34.5457V33.8458H34.5631C34.8297 33.2346 35.3021 32.9287 35.9803 32.9287V33.5764C35.4761 33.5764 35.0991 33.7822 34.8502 34.1935C34.6472 34.5298 34.5457 34.9689 34.5457 35.5107V37.2625H33.9414Z" fill="#295182"/>
<path d="M36.8017 37.2626V33.0242H37.4058V37.2626H36.8017ZM36.7061 31.9202V31.1206H37.5056V31.9202H36.7061Z" fill="#295182"/>
<path d="M40.9961 35.3412H40.6396C40.3238 35.3412 40.037 35.4007 39.7792 35.5193C39.4285 35.6817 39.2529 35.9209 39.2529 36.2367C39.2529 36.4193 39.3074 36.5678 39.4161 36.682C39.5248 36.7968 39.6689 36.8537 39.8486 36.8537C40.0541 36.8537 40.2499 36.7915 40.4355 36.6668C40.6208 36.5423 40.7541 36.3844 40.8354 36.193C40.9425 35.9438 40.9961 35.6601 40.9961 35.3412ZM41.0135 37.2625V36.7019H40.9961C40.9209 36.8466 40.7876 36.9812 40.5962 37.106C40.3357 37.2769 40.0356 37.3624 39.6965 37.3624C39.3342 37.3624 39.053 37.2539 38.8533 37.0366C38.6561 36.8278 38.5576 36.5409 38.5576 36.1756C38.5576 35.7323 38.8024 35.3891 39.2922 35.1457C39.6774 34.9546 40.1064 34.8586 40.5788 34.8586C40.7616 34.8586 40.9004 34.85 40.9961 34.8326C40.9961 34.3807 40.9875 34.111 40.9701 34.0242C40.8918 33.6301 40.6338 33.4329 40.1963 33.4329C39.6805 33.4329 39.392 33.6588 39.3315 34.111H38.6575C38.6605 33.7111 38.8198 33.4069 39.1356 33.1981C39.4081 33.0186 39.756 32.9287 40.1789 32.9287C41.1267 32.9287 41.6004 33.3823 41.6004 34.2894V37.2625H41.0135Z" fill="#295182"/>
<path d="M43.0698 37.2628H43.6738V31.1208H43.0698V37.2628Z" fill="#295182"/>
<path d="M46.1645 34.6542L46.521 34.8672C46.88 35.0818 47.0991 35.2253 47.1773 35.2978C47.4005 35.5035 47.512 35.7643 47.512 36.0799C47.512 36.9351 46.9859 37.3624 45.9339 37.3624C45.537 37.3624 45.1517 37.3029 44.7778 37.1842V36.6322C45.2201 36.7799 45.5846 36.8537 45.8711 36.8537C46.5562 36.8537 46.8991 36.6245 46.8991 36.1662C46.8991 35.9803 46.804 35.815 46.6142 35.67C46.5708 35.638 46.4126 35.5481 46.1394 35.4001L45.7555 35.1982C45.4397 35.0301 45.2297 34.8981 45.1255 34.8027C44.9053 34.6028 44.7952 34.3519 44.7952 34.0505C44.7952 33.6591 44.946 33.3662 45.2472 33.1721C45.5022 33.0097 45.8354 32.9287 46.247 32.9287C46.4934 32.9287 46.8253 32.9752 47.2423 33.0678V33.6284C46.8947 33.4982 46.5658 33.4329 46.2558 33.4329C46.05 33.4329 45.8658 33.4735 45.7035 33.5546C45.5008 33.6561 45.3993 33.7996 45.3993 33.9852C45.3993 34.1415 45.4864 34.272 45.6601 34.376C45.7732 34.4368 45.9413 34.5298 46.1645 34.6542Z" fill="#295182"/>
<path d="M48.2026 37.2625H49.0938V36.3716H48.2026V37.2625Z" fill="#295182"/>
<path d="M53.9091 33.6294L54.483 33.9416C54.9003 34.1703 55.1943 34.3736 55.3655 34.5501C55.6438 34.8402 55.7829 35.2008 55.7829 35.6325C55.7829 36.2352 55.5638 36.6843 55.1266 36.98C54.7496 37.235 54.2468 37.3625 53.6182 37.3625C53.2354 37.3625 52.763 37.3002 52.201 37.1755V36.4628C52.737 36.6744 53.2354 36.78 53.6962 36.78C54.0643 36.78 54.3671 36.699 54.6047 36.5364C54.8829 36.3508 55.022 36.0825 55.022 35.7313C55.022 35.421 54.9164 35.1626 54.7051 34.9569C54.5922 34.8468 54.3577 34.6914 54.0018 34.4914L53.4572 34.1891C53.0053 33.9372 52.7124 33.7486 52.5791 33.6241C52.2807 33.3489 52.1313 33.0068 52.1313 32.5983C52.1313 32.0621 52.3343 31.6552 52.7401 31.377C53.0905 31.1394 53.5471 31.0205 54.1091 31.0205C54.4481 31.0205 54.8743 31.0744 55.3874 31.1812V31.8682C54.9551 31.6915 54.5076 31.603 54.0441 31.603C53.7194 31.603 53.4528 31.6768 53.2443 31.8242C53.0067 31.9921 52.8878 32.2308 52.8878 32.5402C52.8878 32.7803 52.9978 32.9971 53.218 33.191C53.3399 33.298 53.5703 33.4443 53.9091 33.6294Z" fill="#295182"/>
<path d="M57.2305 34.2369H58.93C58.93 34.0516 58.8719 33.8823 58.756 33.7285C58.6083 33.5313 58.3965 33.4329 58.1216 33.4329C57.6287 33.4329 57.3317 33.7012 57.2305 34.2369ZM59.5298 36.7365V37.2362C59.2602 37.3206 58.9358 37.3624 58.5561 37.3624C57.8547 37.3624 57.3273 37.1392 56.9738 36.6928C56.6522 36.2904 56.4912 35.7267 56.4912 35.0021C56.4912 33.6199 57.0432 32.9287 58.1476 32.9287C58.6285 32.9287 58.998 33.0794 59.2558 33.3806C59.5022 33.6649 59.6253 34.0502 59.6253 34.5369V34.7413H57.1868V34.9936C57.1868 35.4339 57.2852 35.8235 57.4824 36.1629C57.7488 36.6234 58.1517 36.8537 58.6907 36.8537C58.9109 36.8537 59.1908 36.8148 59.5298 36.7365Z" fill="#295182"/>
<path d="M62.833 35.3412H62.4768C62.1607 35.3412 61.8736 35.4007 61.6161 35.5193C61.2652 35.6817 61.0901 35.9209 61.0901 36.2367C61.0901 36.4193 61.1443 36.5678 61.253 36.682C61.3617 36.7968 61.5058 36.8537 61.6855 36.8537C61.8913 36.8537 62.0868 36.7915 62.2724 36.6668C62.4574 36.5423 62.5913 36.3844 62.6723 36.193C62.7794 35.9438 62.833 35.6601 62.833 35.3412ZM62.8504 37.2625V36.7019H62.833C62.7578 36.8466 62.6245 36.9812 62.4331 37.106C62.1723 37.2769 61.8725 37.3624 61.5334 37.3624C61.1711 37.3624 60.8899 37.2539 60.6902 37.0366C60.493 36.8278 60.3945 36.5409 60.3945 36.1756C60.3945 35.7323 60.6393 35.3891 61.1291 35.1457C61.5143 34.9546 61.9433 34.8586 62.4157 34.8586C62.5982 34.8586 62.7376 34.85 62.833 34.8326C62.833 34.3807 62.8244 34.111 62.807 34.0242C62.7288 33.6301 62.4707 33.4329 62.0332 33.4329C61.5174 33.4329 61.2292 33.6588 61.1684 34.111H60.4944C60.4974 33.7111 60.6567 33.4069 60.9726 33.1981C61.245 33.0186 61.5929 32.9287 62.016 32.9287C62.9636 32.9287 63.4373 33.3823 63.4373 34.2894V37.2625H62.8504Z" fill="#295182"/>
<path d="M66.8543 36.7712V37.3147C66.6544 37.3465 66.476 37.3625 66.3197 37.3625C65.914 37.3625 65.6197 37.2815 65.4372 37.1191C65.2403 36.9479 65.1415 36.6642 65.1415 36.2673V33.5329H64.4507V33.0243H65.1415V32.0378L65.7544 31.6553V33.0243H66.8892V33.5329H65.7544V36.1409C65.7544 36.6166 65.984 36.8539 66.4431 36.8539C66.5554 36.8539 66.6928 36.8265 66.8543 36.7712Z" fill="#295182"/>
<path d="M68.8186 34.6542L69.1751 34.8672C69.5343 35.0818 69.7534 35.2253 69.8316 35.2978C70.0545 35.5035 70.1663 35.7643 70.1663 36.0799C70.1663 36.9351 69.6402 37.3624 68.5882 37.3624C68.1913 37.3624 67.806 37.3029 67.4321 37.1842V36.6322C67.8744 36.7799 68.2389 36.8537 68.5251 36.8537C69.2105 36.8537 69.5534 36.6245 69.5534 36.1662C69.5534 35.9803 69.4583 35.815 69.2685 35.67C69.2254 35.638 69.0669 35.5481 68.7937 35.4001L68.4098 35.1982C68.0942 35.0301 67.884 34.8981 67.7798 34.8027C67.5596 34.6028 67.4496 34.3519 67.4496 34.0505C67.4496 33.6591 67.6003 33.3662 67.9015 33.1721C68.1565 33.0097 68.4897 32.9287 68.9013 32.9287C69.1474 32.9287 69.4793 32.9752 69.8966 33.0678V33.6284C69.549 33.4982 69.2201 33.4329 68.9101 33.4329C68.7041 33.4329 68.5201 33.4735 68.3581 33.5546C68.1551 33.6561 68.0536 33.7996 68.0536 33.9852C68.0536 34.1415 68.1407 34.272 68.3144 34.376C68.4275 34.4368 68.5954 34.5298 68.8186 34.6542Z" fill="#295182"/>
<path d="M70.8574 37.2625H71.7485V36.3716H70.8574V37.2625Z" fill="#295182"/>
<path d="M73.0176 37.2628H73.713V31.1208H73.0176V37.2628Z" fill="#295182"/>
<path d="M75.2305 37.2625V33.0241H75.8348V34.0023H75.8522C76.0925 33.2866 76.5345 32.9287 77.1778 32.9287C77.5315 32.9287 77.8067 33.062 78.0039 33.3286C78.1776 33.5662 78.2647 33.869 78.2647 34.2369V37.2625H77.6601V34.9106C77.6601 34.4415 77.6344 34.1213 77.5821 33.9501C77.498 33.6718 77.3169 33.5327 77.0387 33.5327C76.6706 33.5327 76.3694 33.7678 76.1346 34.2369C75.9346 34.6371 75.8348 35.0646 75.8348 35.5193V37.2625H75.2305Z" fill="#295182"/>
<path d="M81.6854 36.7712V37.3147C81.4854 37.3465 81.3073 37.3625 81.1508 37.3625C80.7451 37.3625 80.4511 37.2815 80.2685 37.1191C80.0713 36.9479 79.9729 36.6642 79.9729 36.2673V33.5329H79.2817V33.0243H79.9729V32.0378L80.5858 31.6553V33.0243H81.7202V33.5329H80.5858V36.1409C80.5858 36.6166 80.8153 36.8539 81.2741 36.8539C81.3867 36.8539 81.5239 36.8265 81.6854 36.7712Z" fill="#295182"/>
<path d="M83.0979 34.2369H84.7974C84.7974 34.0516 84.7393 33.8823 84.6234 33.7285C84.4757 33.5313 84.2642 33.4329 83.9887 33.4329C83.4961 33.4329 83.1991 33.7012 83.0979 34.2369ZM85.3972 36.7365V37.2362C85.1276 37.3206 84.8032 37.3624 84.4235 37.3624C83.7221 37.3624 83.1949 37.1392 82.8415 36.6928C82.5196 36.2904 82.3589 35.7267 82.3589 35.0021C82.3589 33.6199 82.9109 32.9287 84.015 32.9287C84.4959 32.9287 84.8654 33.0794 85.1234 33.3806C85.3696 33.6649 85.4929 34.0502 85.4929 34.5369V34.7413H83.0542V34.9936C83.0542 35.4339 83.1529 35.8235 83.3498 36.1629C83.6164 36.6234 84.0194 36.8537 84.5584 36.8537C84.7786 36.8537 85.0582 36.8148 85.3972 36.7365Z" fill="#295182"/>
<path d="M86.5972 37.2625V33.0241H87.2012V33.8458H87.2186C87.4852 33.2346 87.9576 32.9287 88.6357 32.9287V33.5764C88.1316 33.5764 87.7546 33.7822 87.5057 34.1935C87.3027 34.5298 87.2012 34.9689 87.2012 35.5107V37.2625H86.5972Z" fill="#295182"/>
<path d="M89.4572 37.2626V33.0242H90.0615V37.2626H89.4572ZM89.3618 31.9202V31.1206H90.1616V31.9202H89.3618Z" fill="#295182"/>
<path d="M91.9389 35.1457C91.9389 36.2846 92.2838 36.8537 92.9736 36.8537C93.6719 36.8537 94.0212 36.2846 94.0212 35.1457C94.0212 34.0037 93.6719 33.4329 92.9736 33.4329C92.2838 33.4329 91.9389 34.0037 91.9389 35.1457ZM92.9736 37.3624C92.3651 37.3624 91.9132 37.1364 91.6176 36.6842C91.3681 36.3075 91.2437 35.7975 91.2437 35.1542C91.2437 34.5082 91.3667 33.9951 91.6131 33.6154C91.9088 33.1574 92.3621 32.9287 92.9736 32.9287C93.5881 32.9287 94.0444 33.1563 94.3429 33.6113C94.592 33.9935 94.7168 34.5082 94.7168 35.1542C94.7168 35.7975 94.5907 36.3092 94.3384 36.6886C94.04 37.1378 93.5851 37.3624 92.9736 37.3624Z" fill="#295182"/>
<path d="M95.8301 37.2625V33.0241H96.4341V33.8458H96.4515C96.7181 33.2346 97.1905 32.9287 97.8687 32.9287V33.5764C97.3645 33.5764 96.9875 33.7822 96.7383 34.1935C96.5353 34.5298 96.4341 34.9689 96.4341 35.5107V37.2625H95.8301Z" fill="#295182"/>
<path fill-rule="evenodd" clip-rule="evenodd" d="M70.3931 23.3805C70.3931 19.2561 70.3931 16.4202 70.3931 12.2954C70.4417 9.20315 72.8999 6.0666 77.3133 6.07988C81.7273 6.09343 83.7358 9.31322 83.7095 12.0236C83.7095 16.0778 83.7095 19.3269 83.7095 23.3811H79.725C79.725 19.8501 79.725 17.3671 79.725 13.8362C79.751 12.0435 78.866 10.2596 76.9989 10.2743C74.999 10.2901 74.3748 12.5615 74.3776 13.7333V23.3653L70.3931 23.3805Z" fill="#295182"/>
<path d="M97.7559 36.9275C97.7559 36.6955 97.9168 36.5212 98.1425 36.5212C98.3679 36.5212 98.5228 36.6891 98.5228 36.9275C98.5228 37.1593 98.3679 37.3335 98.1295 37.3335C97.9105 37.3335 97.7559 37.1593 97.7559 36.9275Z" fill="#295182"/>
</svg>
