<svg width="105" height="14" viewBox="0 0 105 14" fill="none" xmlns="http://www.w3.org/2000/svg">
<path d="M6.99608 3.70811C6.99608 3.70811 6.99608 3.67027 7.10712 3.51892C7.21817 3.36757 7.18115 3.25405 7.10712 3.17838C7.07011 3.14054 5.99666 2.4973 5.99666 2.4973C5.92263 2.45946 5.88562 2.34595 5.88562 2.27027C5.88562 2.11892 5.99666 2.00541 6.18174 1.92973C6.84801 1.74054 9.25401 1.62703 10.0683 1.62703H11.1788H11.2158C10.0313 0.605405 8.5137 0 6.84801 0C3.10947 0 0.0742188 3.1027 0.0742188 6.92432C0.0742188 8.58919 0.666463 10.1405 1.62886 11.3514C2.48021 10.0649 4.59008 7.03784 5.03427 6.39459C5.5895 5.56216 6.99608 3.70811 6.99608 3.70811Z" fill="#E00A1E"/>
<path d="M13.0664 4.16212C13.3995 3.82158 13.6216 3.51888 13.5846 3.25401C13.5476 2.53509 12.6962 1.96753 12.6962 1.96753C12.6962 1.96753 12.6962 1.96753 12.6592 1.92969C12.6962 1.96753 12.7332 2.00536 12.7703 2.08104C12.9923 2.61077 12.6222 2.95131 12.4001 3.17834C12.2891 3.29185 10.5493 4.95671 8.5135 6.77293C6.73677 8.36212 4.73794 9.98915 3.55345 10.8973C1.92478 12.1459 1.59164 12.3351 1.59164 12.3351C1.55463 12.3729 1.4806 12.3729 1.40657 12.3729C1.29552 12.3729 1.22149 12.2973 1.14746 12.2216C1.14746 12.2594 1.14746 12.3729 1.29552 12.5621L1.36955 12.6378C1.4806 12.7513 1.62866 12.9405 1.85075 13.0919C2.18389 13.3946 2.33195 13.2432 3.03524 12.7135C4.10868 13.4324 5.40422 13.8864 6.8108 13.8864C10.5493 13.8864 13.5846 10.7837 13.5846 6.96212C13.6586 5.9405 13.4365 4.99455 13.0664 4.16212Z" fill="#E00A1E"/>
<path fill-rule="evenodd" clip-rule="evenodd" d="M7.10731 3.51885C7.21836 3.36749 7.18135 3.25398 7.10731 3.1783C7.0703 3.14047 5.99686 2.49722 5.99686 2.49722C5.92283 2.45939 5.88581 2.34587 5.88581 2.2702C5.88581 2.11885 5.99686 2.00533 6.18193 1.92966C6.84821 1.74047 9.2542 1.62695 10.0685 1.62695C10.4387 1.62695 11.216 1.62695 11.6972 1.66479C12.2524 1.70263 12.6966 1.81614 12.7707 2.08101C12.9927 2.61074 12.6226 2.95128 12.4005 3.1783C12.2895 3.29182 10.5497 4.95668 8.5139 6.7729C6.73716 8.36209 4.73834 9.98912 3.55385 10.8972C1.92518 12.1459 1.59204 12.3351 1.59204 12.3351C1.55502 12.3729 1.48099 12.3729 1.40696 12.3729C1.22189 12.3729 1.11084 12.2594 1.11084 12.0702C1.11084 11.9945 1.14786 11.9567 1.14786 11.881C1.14786 11.881 4.36818 7.15128 4.92341 6.35668C5.51566 5.56209 6.92224 3.70803 6.92224 3.70803C6.92224 3.70803 6.99627 3.6702 7.10731 3.51885Z" fill="white"/>
<path d="M23.6159 1.24854V9.9134C23.6159 11.8053 21.9872 13.281 19.8033 13.281C17.6564 13.281 15.9907 11.8431 15.9907 9.9134V3.29178C15.9907 2.15664 16.8791 1.24854 17.9525 1.24854H18.1006V9.9134C18.1006 10.935 18.989 11.5783 19.8773 11.5783C20.7287 11.5783 21.617 11.0107 21.617 9.9134V3.17826C21.617 2.11881 22.4684 1.24854 23.5048 1.24854H23.6159Z" fill="#212121"/>
<path d="M27.7987 4.31348C30.6859 4.31348 31.13 5.97834 31.13 6.96213V13.1297H31.056C29.9826 13.1297 29.0942 12.2216 29.0942 11.1243V6.96213C29.0942 6.39456 28.8721 5.67564 27.7246 5.67564C27.2064 5.67564 26.8733 5.75131 26.5401 5.86483V13.0919H24.4673V4.91888C25.3557 4.5405 26.7992 4.31348 27.7987 4.31348Z" fill="#212121"/>
<path d="M33.0918 1.24854C33.7211 1.24854 34.2023 1.74043 34.2023 2.30799C34.2023 2.87556 33.7211 3.32962 33.0918 3.32962C32.4626 3.32962 31.9814 2.87556 31.9814 2.30799C31.9443 1.70259 32.4626 1.24854 33.0918 1.24854ZM34.0912 4.3134V11.162C34.0912 12.2593 33.2399 13.1675 32.1294 13.1675H32.0554V4.3134H34.0912Z" fill="#212121"/>
<path d="M39.9767 1.05957C40.9391 1.05957 41.8645 1.2866 42.6048 1.74065V3.82173C42.1236 3.21633 41.4943 2.76227 40.4209 2.76227C38.311 2.76227 37.0154 4.88119 37.0154 7.07579C37.0154 9.15687 38.385 11.3893 40.4209 11.3893C41.3092 11.3893 42.1236 11.1244 42.6048 10.4434V12.4866C42.0125 12.9407 41.0501 13.2055 39.9397 13.2055C36.6083 13.2055 34.8315 10.065 34.8315 7.07579C34.8686 4.16227 36.6453 1.05957 39.9767 1.05957Z" fill="#212121"/>
<path d="M46.2693 4.31348C46.6025 4.31348 47.0466 4.35131 47.4168 4.38915V6.09185C46.7135 5.56213 45.7511 5.75131 45.3439 5.97834V11.1621C45.3439 12.2594 44.4556 13.1675 43.3821 13.1675H43.3081V4.99456C44.1224 4.57834 44.9368 4.31348 46.2693 4.31348Z" fill="#212121"/>
<path d="M54.5976 8.81617L49.4524 9.53509C49.6375 10.9729 50.3408 11.7297 51.6363 11.7297C53.0799 11.7297 53.7832 11.2378 54.3385 10.8594V12.6C53.8202 12.9027 52.8578 13.2432 51.4513 13.2432C48.9342 13.2432 47.4536 11.5027 47.4536 8.7405C47.4536 6.05401 48.8602 4.27563 51.1181 4.27563C53.3761 4.27563 54.6346 5.78915 54.6346 8.47563V8.81617H54.5976ZM52.8208 7.60536C52.7468 5.86482 51.7104 5.67563 51.1181 5.67563H51.0441C49.8966 5.71347 49.3414 6.5459 49.3414 8.09726L52.8208 7.60536Z" fill="#212121"/>
<path d="M62.0008 1.24854V13.0539C61.5196 13.1675 59.8909 13.281 59.2246 13.281H59.0765C56.5595 13.2431 55.1899 11.7675 55.1899 9.1188C55.1899 6.43232 56.6335 4.69178 58.8545 4.69178C59.2986 4.69178 59.6688 4.72962 59.9649 4.80529V3.29178C59.9649 2.19448 60.8163 1.28637 61.9267 1.28637H62.0008V1.24854ZM60.0019 6.0161C59.7798 5.94043 59.5577 5.94043 59.2986 5.94043C57.5959 5.94043 57.2628 7.60529 57.2628 9.00529C57.2628 10.935 57.8921 11.9188 59.1876 11.9188C59.4097 11.9188 59.8909 11.881 60.0389 11.8431V6.0161H60.0019Z" fill="#212121"/>
<path d="M63.9995 1.24854C64.6288 1.24854 65.11 1.74043 65.11 2.30799C65.11 2.87556 64.6288 3.32962 63.9995 3.32962C63.3703 3.32962 62.8891 2.87556 62.8891 2.30799C62.8521 1.70259 63.3703 1.24854 63.9995 1.24854ZM64.9989 4.3134V11.162C64.9989 12.2593 64.1476 13.1675 63.0371 13.1675H62.9631V4.3134H64.9989Z" fill="#212121"/>
<path d="M68.6264 1.24854V4.3134H69.9589V6.0161H68.6264V10.708C68.6264 11.2756 68.8114 11.4648 69.4037 11.4648C69.5517 11.4648 69.7738 11.4269 69.9589 11.3512V13.0918C69.8849 13.1296 69.4777 13.281 68.9225 13.281C67.4049 13.281 66.5905 12.5242 66.5905 11.162V6.0161H65.7021V4.3134H66.5905V3.25394C66.5905 2.15664 67.4419 1.24854 68.5153 1.24854H68.6264Z" fill="#212121"/>
<path d="M79.4347 6.6974V6.73524C80.5452 6.96227 82.0628 7.94605 82.0628 9.68659C82.0628 12.0704 80.212 13.092 77.4729 13.092C74.8818 13.092 73.9194 13.0542 73.9194 13.0542V1.66497C74.6597 1.28659 75.8812 0.983887 77.3248 0.983887C80.212 0.983887 81.6556 2.27037 81.6556 4.01091C81.6926 5.71362 80.4711 6.47037 79.4347 6.6974ZM79.5458 4.2001C79.5458 2.87578 78.8054 2.27037 77.3618 2.27037C76.8436 2.27037 76.4365 2.34605 76.0293 2.45956V6.20551H76.6956C78.8425 6.31902 79.5458 5.63794 79.5458 4.2001ZM76.6956 7.34064H76.0293V11.7677H77.4359C78.8425 11.7677 79.8789 11.2001 79.8789 9.68659C79.8789 8.02172 78.9535 7.26497 76.6956 7.34064Z" fill="#212121"/>
<path d="M87.1711 7.56753V6.99996C87.1711 5.86482 86.5048 5.56212 85.5054 5.56212C84.691 5.56212 83.8767 5.86482 82.9513 6.35672V4.95672C83.5066 4.69185 84.506 4.27563 85.8385 4.27563C87.5782 4.27563 89.0588 5.18374 89.0588 7.37834V13.0162C88.5036 13.1297 87.1711 13.2432 86.3567 13.2432H85.9125C83.6176 13.2432 82.4331 12.2594 82.4331 10.5946C82.4331 8.32428 84.58 7.79455 87.1711 7.56753ZM87.1711 8.51347C85.3573 8.70266 84.2469 9.08104 84.2469 10.5567C84.2469 11.654 84.9131 12.1459 86.0236 12.1459C86.4678 12.1459 86.986 12.1081 87.1711 12.0702V8.51347Z" fill="#212121"/>
<path d="M93.2415 4.27563C96.1287 4.27563 96.6099 5.9405 96.6099 6.92428V13.1297H96.5359C95.4624 13.1297 94.5371 12.2216 94.5371 11.1243V6.96212C94.5371 6.39455 94.315 5.67563 93.1675 5.67563C92.6493 5.67563 92.3161 5.75131 91.983 5.86482V13.1297H89.9102V4.91888C90.7985 4.5405 92.2421 4.27563 93.2415 4.27563Z" fill="#212121"/>
<path d="M99.571 11.0864C99.571 12.2215 98.7196 13.1296 97.5352 13.1296V3.25394C97.5352 2.1188 98.3865 1.21069 99.571 1.21069V8.39988L102.125 4.50258H104.05L101.422 8.43772L104.531 13.1296H102.347L99.571 8.74042V11.0864Z" fill="#212121"/>
</svg>
