<svg width="80" height="151" viewBox="0 0 80 151" fill="none" xmlns="http://www.w3.org/2000/svg">
<path d="M25 10.5C24.1667 8.16667 22.4 3.3 22 2.5L57.5 3L54.5 10.5H25Z" fill="#FF0000"/>
<circle cx="40" cy="80" r="26" fill="#FFA336"/>
<circle cx="40" cy="80" r="3" fill="white"/>
<path d="M67.8912 0.500488H11.5805C5.19507 0.500488 0 5.69555 0 12.0807V138.78C0 145.166 5.19507 150.361 11.5805 150.361H67.8915C74.2769 150.361 79.472 145.166 79.472 138.78V12.0807C79.4717 5.69555 74.2769 0.500488 67.8912 0.500488V0.500488ZM25.507 4.89093H53.9647V7.38822C53.9647 8.76535 52.8443 9.8855 51.4674 9.8855H28.0046C26.6275 9.8855 25.5073 8.76506 25.5073 7.38822V4.89093H25.507ZM75.0813 138.781C75.0813 142.745 71.8558 145.971 67.8912 145.971H11.5805C7.61596 145.971 4.39045 142.745 4.39045 138.781V12.0807C4.39045 8.11615 7.61596 4.89093 11.5805 4.89093H21.1169V7.38822C21.1169 11.1862 24.2069 14.2759 28.0046 14.2759H51.4674C55.2654 14.2759 58.3551 11.186 58.3551 7.38822V4.89093H67.8915C71.8561 4.89093 75.0816 8.11645 75.0816 12.0807V138.781H75.0813Z" fill="black"/>
<path d="M18.4796 96.9407C18.9089 96.9407 19.343 96.8149 19.7232 96.5529C20.7216 95.8648 20.973 94.4979 20.2849 93.4995C17.5611 89.5475 16.1216 84.922 16.1216 80.1236C16.1216 67.1027 26.7149 56.5097 39.7355 56.5097C44.5342 56.5097 49.1594 57.9495 53.1117 60.673C54.1098 61.3611 55.477 61.1094 56.1648 60.111C56.8529 59.1127 56.6012 57.7458 55.6031 57.0579C50.915 53.8271 45.4281 52.1193 39.7358 52.1193C24.294 52.1193 11.7314 64.6821 11.7314 80.1236C11.7314 85.8162 13.4393 91.3031 16.6704 95.9912C17.096 96.6088 17.7821 96.9407 18.4796 96.9407Z" fill="black"/>
<path d="M59.7486 63.6938C58.7502 64.382 58.4988 65.7489 59.1869 66.7472C61.9108 70.6992 63.3502 75.3247 63.3502 80.1235C63.3502 93.1443 52.757 103.737 39.7364 103.737C34.9379 103.737 30.3127 102.298 26.3601 99.574C25.3615 98.8859 23.9949 99.1376 23.3067 100.136C22.6189 101.134 22.8703 102.501 23.8687 103.189C28.5571 106.42 34.044 108.128 39.7361 108.128C55.1779 108.128 67.7404 95.5649 67.7404 80.1235C67.7404 74.4308 66.0325 68.9439 62.8014 64.2558C62.1139 63.2574 60.747 63.0057 59.7486 63.6938Z" fill="black"/>
<path d="M13.9267 33.0466H25.6582C26.8706 33.0466 27.8535 32.0637 27.8535 30.8514C27.8535 29.639 26.8706 28.6561 25.6582 28.6561H13.9267C12.7143 28.6561 11.7314 29.639 11.7314 30.8514C11.7314 32.0637 12.7143 33.0466 13.9267 33.0466Z" fill="black"/>
<path d="M13.9267 42.4316H30.3507C31.5631 42.4316 32.546 41.4487 32.546 40.2364C32.546 39.024 31.5631 38.0411 30.3507 38.0411H13.9267C12.7143 38.0411 11.7314 39.024 11.7314 40.2364C11.7314 41.4487 12.7143 42.4316 13.9267 42.4316Z" fill="black"/>
<path d="M65.5449 28.6561H53.8134C52.601 28.6561 51.6182 29.639 51.6182 30.8514C51.6182 32.0637 52.601 33.0466 53.8134 33.0466H65.5449C66.7573 33.0466 67.7402 32.0637 67.7402 30.8514C67.7402 29.639 66.7573 28.6561 65.5449 28.6561Z" fill="black"/>
<path d="M65.5451 38.0411H49.121C47.9087 38.0411 46.9258 39.024 46.9258 40.2364C46.9258 41.4487 47.9087 42.4316 49.121 42.4316H65.5451C66.7574 42.4316 67.7403 41.4487 67.7403 40.2364C67.7403 39.024 66.7574 38.0411 65.5451 38.0411Z" fill="black"/>
<path d="M25.6582 127.2H13.9267C12.7143 127.2 11.7314 128.183 11.7314 129.395C11.7314 130.608 12.7143 131.591 13.9267 131.591H25.6582C26.8706 131.591 27.8534 130.608 27.8534 129.395C27.8534 128.183 26.8706 127.2 25.6582 127.2Z" fill="black"/>
<path d="M30.3507 117.815H13.9267C12.7143 117.815 11.7314 118.798 11.7314 120.01C11.7314 121.223 12.7143 122.205 13.9267 122.205H30.3507C31.5631 122.205 32.546 121.223 32.546 120.01C32.546 118.798 31.5631 117.815 30.3507 117.815Z" fill="black"/>
<path d="M65.5449 127.2H53.8134C52.601 127.2 51.6182 128.183 51.6182 129.395C51.6182 130.608 52.601 131.591 53.8134 131.591H65.5449C66.7573 131.591 67.7402 130.608 67.7402 129.395C67.7402 128.183 66.7573 127.2 65.5449 127.2Z" fill="black"/>
<path d="M65.5451 117.815H49.121C47.9087 117.815 46.9258 118.798 46.9258 120.01C46.9258 121.223 47.9087 122.205 49.121 122.205H65.5451C66.7574 122.205 67.7403 121.223 67.7403 120.01C67.7403 118.798 66.7574 117.815 65.5451 117.815Z" fill="black"/>
<path d="M53.0198 66.8395C52.1625 65.9822 50.7725 65.9822 49.9155 66.8395L42.7988 73.9561C41.8757 73.4957 40.836 73.2352 39.7364 73.2352C35.9383 73.2352 32.8486 76.3252 32.8486 80.123C32.8486 83.1535 34.8167 85.731 37.5411 86.6501V96.547C37.5411 97.7594 38.524 98.7422 39.7364 98.7422C40.9487 98.7422 41.9316 97.7594 41.9316 96.547V86.6501C44.656 85.7313 46.6241 83.1535 46.6241 80.123C46.6241 79.0233 46.3636 77.9836 45.9032 77.0605L53.0198 69.9439C53.8771 69.0868 53.8771 67.6968 53.0198 66.8395ZM39.7361 82.6205C38.3589 82.6205 37.2388 81.5001 37.2388 80.1232C37.2388 78.7464 38.3592 77.626 39.7361 77.626C41.1129 77.626 42.2334 78.7464 42.2334 80.1232C42.2334 81.5001 41.1132 82.6205 39.7361 82.6205Z" fill="black"/>
</svg>
