<svg width="140" height="183" viewBox="0 0 140 183" fill="none" xmlns="http://www.w3.org/2000/svg">
<path d="M39.012 125.484L39 125.5V124.5L39.012 125.484L44 119H113L118 124.5V164L113 169.5H44L39.5 165.5L39.012 125.484Z" fill="#FF0000"/>
<circle cx="27" cy="26" r="14" fill="#FFA336"/>
<circle cx="78" cy="146" r="8" fill="white"/>
<path d="M138.745 159.758L129.333 120.026C127.761 113.391 122.459 108.155 115.825 106.688L108.709 105.116C110.772 102.427 111.936 99.0959 111.936 95.6329V61.8221C111.937 43.3216 97.0146 28.4285 78.6987 28.4285C60.3699 28.4285 45.4581 43.4089 45.4581 61.8221V95.6329C45.4581 99.0959 46.6229 102.427 48.6852 105.117L41.5686 106.688C34.937 108.155 29.6361 113.391 28.0641 120.026L18.6496 159.758C17.544 164.23 19.052 168.975 24.0453 170.476L36.5886 174.303V176.834C36.5886 179.73 38.7818 182.086 41.478 182.086H115.917C118.613 182.086 120.806 179.73 120.806 176.834V174.302L133.351 170.476C138.127 169.036 139.853 164.231 138.745 159.758ZM90.5085 105.163C87.3108 108.13 83.1428 109.787 78.6972 109.787C74.2516 109.787 70.0836 108.13 66.8859 105.163C68.8862 103.801 70.1815 101.501 70.1815 98.9795V97.5203C72.8414 98.4891 75.7087 99.0194 78.6972 99.0194C81.6857 99.0194 84.553 98.4891 87.2129 97.5203V98.9792C87.2129 101.501 88.5082 103.801 90.5085 105.163ZM78.6972 94.5177C67.3643 94.5177 58.1445 85.2457 58.1445 73.8492V61.4076C65.4325 60.9875 72.5047 58.9974 78.7236 55.6028C81.3586 54.1644 83.8703 52.464 86.2069 50.5378C87.7075 52.8415 89.5451 54.879 91.6837 56.6088C93.9664 58.4551 96.5056 59.8855 99.2505 60.8728V73.8495C99.2502 85.2457 90.0304 94.5177 78.6972 94.5177ZM91.7146 95.3472C98.9269 90.9232 103.752 82.942 103.752 73.8492V72.3063C105.006 72.3546 106.338 72.1334 107.435 71.6256V95.6326C107.435 98.8504 106.02 101.906 103.614 103.991L94.0246 101.874C92.6861 101.578 91.7149 100.361 91.7149 98.9789L91.7146 95.3472ZM103.752 67.8049V61.4875C105.654 61.2483 107.434 62.6819 107.434 64.6597C107.434 66.5852 105.66 68.0534 103.752 67.8049ZM78.6987 32.9302C92.675 32.9302 105.122 43.5614 107.122 57.532C105.67 56.9255 103.454 56.924 101.846 56.9855C99.1625 56.1734 96.6962 54.873 94.5147 53.1086C92.4319 51.4238 90.6933 49.3854 89.3467 47.0496C88.8527 46.1931 88.0112 45.6094 87.0374 45.4479C86.065 45.2864 85.0821 45.5668 84.3408 46.2168C81.9468 48.314 79.3316 50.1426 76.567 51.6516C70.3606 55.0392 63.2032 56.8837 55.8682 56.9855C54.0591 57.0107 51.9046 56.8774 50.2776 57.5305C52.3454 43.6277 64.3022 32.9302 78.6987 32.9302ZM53.6428 61.4872V67.8046C51.7269 68.0411 49.961 66.6134 49.961 64.6321C49.961 62.687 51.7494 61.2528 53.6428 61.4872ZM49.9598 71.6262C51.1831 72.1943 52.28 72.3267 53.6428 72.3063V73.8492C53.6428 82.942 58.4677 90.9232 65.6798 95.3472V98.9792C65.6798 100.361 64.7086 101.579 63.3698 101.874L53.78 103.992C51.3743 101.907 49.9598 98.851 49.9598 95.6329V71.6262ZM38.0948 170.056L25.3604 166.171C23.4535 165.59 22.3332 163.578 22.7917 161.655C23.2686 159.658 25.3241 158.364 27.3202 158.855L36.5883 161.087V162.897C36.5883 165.353 37.4619 167.608 38.9147 169.369C38.6188 169.566 38.3448 169.798 38.0948 170.056ZM116.304 176.835C116.304 177.302 116.035 177.585 115.916 177.585H41.478C41.3595 177.585 41.0903 177.302 41.0903 176.835V173.833C41.0903 173.367 41.3595 173.083 41.478 173.083H115.917C116.035 173.083 116.304 173.367 116.304 173.833L116.304 176.835ZM84.6995 121.372H110.619C113.754 121.372 116.304 123.922 116.304 127.056V162.897C116.304 166.031 113.754 168.582 110.619 168.582H46.775C43.6403 168.582 41.0903 166.031 41.0903 162.897V127.056C41.0903 123.922 43.6403 121.372 46.775 121.372H74.1955C75.4389 121.372 76.4463 120.364 76.4463 119.121C76.4463 117.878 75.4389 116.87 74.1955 116.87H46.775C41.1581 116.87 36.5886 121.439 36.5886 127.056V156.457L28.3762 154.479C27.0906 154.168 25.7785 154.173 24.5279 154.474L32.4443 121.064C33.6207 116.098 37.5837 112.18 42.5398 111.084L62.1675 106.75C66.3451 111.558 72.2904 114.288 78.6969 114.288C85.1034 114.288 91.0487 111.558 95.2265 106.75C95.2265 106.75 114.813 111.075 114.853 111.083C119.812 112.18 123.776 116.098 124.952 121.064L132.867 154.473C131.616 154.173 130.305 154.168 129.02 154.479L120.806 156.456V127.056C120.806 121.439 116.236 116.87 110.619 116.87H84.6995C83.4561 116.87 82.4486 117.877 82.4486 119.12C82.4486 120.363 83.4561 121.372 84.6995 121.372ZM132.035 166.17L119.3 170.056C119.05 169.798 118.776 169.566 118.479 169.369C119.932 167.608 120.806 165.353 120.806 162.897V161.087L130.075 158.855C132.386 158.279 134.709 160.14 134.709 162.549C134.709 164.2 133.609 165.689 132.035 166.17ZM67.8712 146.024C67.8712 152.018 72.7279 156.894 78.6972 156.894C84.6665 156.894 89.5232 152.018 89.5232 146.024C89.5232 140.031 84.6665 135.155 78.6972 135.155C72.7279 135.155 67.8712 140.031 67.8712 146.024ZM85.0215 146.024C85.0215 149.536 82.1845 152.392 78.6972 152.392C75.2099 152.392 72.3729 149.536 72.3729 146.024C72.3729 142.513 75.2099 139.657 78.6972 139.657C82.1845 139.657 85.0215 142.513 85.0215 146.024Z" fill="black"/>
<path d="M26.6721 10.7239C17.8777 10.7239 10.7237 17.8778 10.7237 26.6722C10.7237 35.4667 17.8777 42.6206 26.6721 42.6206C35.4665 42.6206 42.6205 35.4667 42.6205 26.6722C42.6205 17.8778 35.4665 10.7239 26.6721 10.7239ZM26.6721 39.4931C19.6031 39.4931 13.8513 33.7412 13.8513 26.6722C13.8513 19.6033 19.6031 13.8514 26.6721 13.8514C33.741 13.8514 39.4929 19.6033 39.4929 26.6722C39.4929 33.7412 33.741 39.4931 26.6721 39.4931Z" fill="black" stroke="black" stroke-width="1.2"/>
<path d="M26.6723 9.08543C27.087 9.08543 27.4847 8.92068 27.778 8.62742C28.0713 8.33415 28.236 7.9364 28.236 7.52167V2.96376C28.236 2.54903 28.0713 2.15128 27.778 1.85801C27.4847 1.56475 27.087 1.4 26.6723 1.4C26.2575 1.4 25.8598 1.56475 25.5665 1.85801C25.2732 2.15128 25.1085 2.54903 25.1085 2.96376V7.52167C25.1085 7.9364 25.2732 8.33415 25.5665 8.62742C25.8598 8.92068 26.2575 9.08543 26.6723 9.08543Z" fill="black" stroke="black" stroke-width="1.2"/>
<path d="M26.6723 44.2591C26.2575 44.2591 25.8598 44.4239 25.5665 44.7171C25.2732 45.0104 25.1085 45.4082 25.1085 45.8229V50.3808C25.1085 50.7956 25.2732 51.1933 25.5665 51.4866C25.8598 51.7798 26.2575 51.9446 26.6723 51.9446C27.087 51.9446 27.4847 51.7798 27.778 51.4866C28.0713 51.1933 28.236 50.7956 28.236 50.3808V45.8229C28.236 45.4082 28.0713 45.0104 27.778 44.7171C27.4847 44.4239 27.087 44.2591 26.6723 44.2591Z" fill="black" stroke="black" stroke-width="1.2"/>
<path d="M18.4513 9.30547L18.4513 9.30546L16.1731 5.35968C16.0713 5.18121 15.9353 5.02455 15.7729 4.89866L15.4053 5.37285L15.7729 4.89866C15.61 4.77231 15.4236 4.67944 15.2246 4.62541C15.0255 4.57137 14.8178 4.55724 14.6133 4.58382C14.4088 4.6104 14.2115 4.67717 14.0329 4.78029C13.8543 4.88341 13.6979 5.02083 13.5726 5.18465C13.4474 5.34847 13.3557 5.53546 13.303 5.73484C13.2503 5.93422 13.2376 6.14205 13.2655 6.34638C13.2933 6.54997 13.361 6.74607 13.4647 6.92347L15.7427 10.8692C15.9501 11.2284 16.2916 11.4905 16.6922 11.5978C17.0928 11.7052 17.5197 11.649 17.8789 11.4416C18.238 11.2343 18.5001 10.8927 18.6075 10.4921C18.7148 10.0915 18.6586 9.66465 18.4513 9.30547Z" fill="black" stroke="black" stroke-width="1.2"/>
<path d="M34.8932 44.039L34.8932 44.039L37.1713 47.9848C37.2731 48.1632 37.4091 48.3199 37.5715 48.4458C37.7345 48.5722 37.9209 48.665 38.1199 48.7191C38.3189 48.7731 38.5267 48.7872 38.7312 48.7606C38.9357 48.7341 39.1329 48.6673 39.3115 48.5642C39.4901 48.4611 39.6466 48.3236 39.7718 48.1598C39.8971 47.996 39.9887 47.809 40.0414 47.6096C40.0942 47.4102 40.1069 47.2024 40.079 46.9981L39.4845 47.0794L40.079 46.9981C40.0511 46.7945 39.9835 46.5984 39.8798 46.421L37.6018 42.4752C37.3944 42.1161 37.0528 41.854 36.6522 41.7466C36.2516 41.6393 35.8248 41.6955 35.4656 41.9028C35.1064 42.1102 34.8443 42.4518 34.737 42.8524C34.6296 43.253 34.6858 43.6798 34.8932 44.039Z" fill="black" stroke="black" stroke-width="1.2"/>
<path d="M10.8693 15.7427L6.92359 13.4647C6.74618 13.361 6.55009 13.2933 6.3465 13.2655C6.14217 13.2376 5.93434 13.2503 5.73496 13.303C5.53558 13.3557 5.3486 13.4474 5.18478 13.5726C5.02095 13.6979 4.88353 13.8543 4.78041 14.0329C4.6773 14.2115 4.61052 14.4088 4.58394 14.6133C4.55736 14.8178 4.57149 15.0255 4.62553 15.2246C4.67956 15.4236 4.77243 15.61 4.89878 15.7729L5.37298 15.4053L4.89878 15.7729C5.02468 15.9353 5.18134 16.0713 5.35981 16.1731L9.30558 18.4513L9.30559 18.4513C9.66477 18.6586 10.0916 18.7148 10.4922 18.6075C10.8928 18.5001 11.2344 18.238 11.4418 17.8789C11.6491 17.5197 11.7053 17.0928 11.598 16.6922C11.4906 16.2916 11.2285 15.9501 10.8693 15.7427Z" fill="black" stroke="black" stroke-width="1.2"/>
<path d="M44.0391 34.8932L44.0391 34.8932C43.6799 34.6858 43.2531 34.6296 42.8525 34.737C42.4519 34.8443 42.1103 35.1064 41.903 35.4656C41.6956 35.8248 41.6394 36.2516 41.7467 36.6522C41.8541 37.0528 42.1162 37.3944 42.4754 37.6018L46.4211 39.8798C46.5985 39.9835 46.7946 40.0511 46.9982 40.079L47.0795 39.4845L46.9982 40.079C47.2025 40.1069 47.4104 40.0942 47.6097 40.0414C47.8091 39.9887 47.9961 39.8971 48.1599 39.7718C48.3238 39.6466 48.4612 39.4901 48.5643 39.3115C48.6674 39.1329 48.7342 38.9357 48.7608 38.7312C48.7873 38.5267 48.7732 38.3189 48.7192 38.1199C48.6651 37.9209 48.5723 37.7345 48.4459 37.5715C48.32 37.4091 48.1634 37.2731 47.9849 37.1713L44.0391 34.8932Z" fill="black" stroke="black" stroke-width="1.2"/>
<path d="M9.08543 26.6723C9.08543 26.2575 8.92068 25.8598 8.62742 25.5665C8.33415 25.2732 7.9364 25.1085 7.52167 25.1085H2.96376C2.54903 25.1085 2.15128 25.2732 1.85801 25.5665C1.56475 25.8598 1.4 26.2575 1.4 26.6723C1.4 27.087 1.56475 27.4847 1.85801 27.778C2.15128 28.0713 2.54903 28.236 2.96376 28.236H7.52167C7.9364 28.236 8.33415 28.0713 8.62742 27.778C8.92068 27.4847 9.08543 27.087 9.08543 26.6723Z" fill="black" stroke="black" stroke-width="1.2"/>
<path d="M50.3806 25.1085H45.8227C45.4079 25.1085 45.0102 25.2732 44.7169 25.5665C44.4236 25.8598 44.2589 26.2575 44.2589 26.6723C44.2589 27.087 44.4236 27.4847 44.7169 27.778C45.0102 28.0713 45.4079 28.236 45.8227 28.236H50.3806C50.7953 28.236 51.1931 28.0713 51.4863 27.778C51.7796 27.4847 51.9443 27.087 51.9443 26.6723C51.9443 26.2575 51.7796 25.8598 51.4863 25.5665C51.1931 25.2732 50.7953 25.1085 50.3806 25.1085Z" fill="black" stroke="black" stroke-width="1.2"/>
<path d="M9.30559 34.8932L9.30558 34.8932L5.35984 37.1713C5.18136 37.2731 5.02469 37.4091 4.89878 37.5715C4.77243 37.7345 4.67956 37.9209 4.62553 38.1199C4.57149 38.3189 4.55736 38.5267 4.58394 38.7312C4.61052 38.9357 4.6773 39.1329 4.78041 39.3115C4.88353 39.4901 5.02095 39.6466 5.18478 39.7718C5.3486 39.8971 5.53558 39.9887 5.73496 40.0414C5.93434 40.0942 6.14217 40.1069 6.3465 40.079L6.26522 39.4845L6.3465 40.079C6.55009 40.0511 6.74619 39.9835 6.9236 39.8798L10.8693 37.6018C11.2285 37.3944 11.4906 37.0528 11.598 36.6522C11.7053 36.2516 11.6491 35.8248 11.4418 35.4656C11.2344 35.1064 10.8928 34.8443 10.4922 34.737C10.0916 34.6296 9.66477 34.6858 9.30559 34.8932Z" fill="black" stroke="black" stroke-width="1.2"/>
<path d="M43.2584 18.6609C43.5328 18.6609 43.8023 18.5885 44.0398 18.451C44.0399 18.451 44.04 18.4509 44.0402 18.4508L47.9852 16.1731C48.1637 16.0713 48.3203 15.9353 48.4462 15.7729C48.5725 15.61 48.6654 15.4236 48.7195 15.2246C48.7735 15.0255 48.7876 14.8178 48.761 14.6133C48.7345 14.4088 48.6677 14.2115 48.5646 14.0329C48.4615 13.8543 48.324 13.6979 48.1602 13.5726C47.9964 13.4474 47.8094 13.3557 47.61 13.303L47.4573 13.8808L47.61 13.303C47.4106 13.2503 47.2028 13.2376 46.9985 13.2655C46.7949 13.2933 46.5988 13.361 46.4214 13.4647L42.4758 15.7426C42.4758 15.7426 42.4757 15.7427 42.4756 15.7427C42.1773 15.9148 41.9442 16.1806 41.8125 16.4988C41.6807 16.817 41.6576 17.1699 41.7469 17.5026C41.8362 17.8353 42.0329 18.1291 42.3064 18.3386C42.5798 18.548 42.9148 18.6613 43.2593 18.6609L43.2585 18.0609L43.2584 18.6609Z" fill="black" stroke="black" stroke-width="1.2"/>
<path d="M15.7427 42.4753L15.7427 42.4753C15.9501 42.1161 16.2916 41.8541 16.6922 41.7467C17.0928 41.6394 17.5196 41.6956 17.8788 41.9029L15.7427 42.4753ZM15.7427 42.4753L13.4647 46.4211C13.361 46.5985 13.2933 46.7946 13.2655 46.9981C13.2376 47.2025 13.2503 47.4103 13.303 47.6097C13.3557 47.8091 13.4474 47.9961 13.5726 48.1599C13.6979 48.3237 13.8543 48.4611 14.0329 48.5642L14.3319 48.0464M15.7427 42.4753L14.3319 48.0464M14.3319 48.0464L14.0329 48.5642C14.2115 48.6674 14.4088 48.7341 14.6133 48.7607C14.8178 48.7873 15.0255 48.7732 15.2246 48.7191C15.4236 48.6651 15.6099 48.5722 15.7729 48.4459C15.9353 48.32 16.0713 48.1633 16.1731 47.9848L18.4513 44.0391L18.4513 44.039M14.3319 48.0464L18.4513 44.039M18.4513 44.039C18.6586 43.6799 18.7148 43.253 18.6074 42.8524M18.4513 44.039L18.6074 42.8524M18.6074 42.8524C18.5001 42.4518 18.238 42.1103 17.8788 41.903L18.6074 42.8524Z" fill="black" stroke="black" stroke-width="1.2"/>
<path d="M37.6017 10.8692L37.6017 10.8692L39.8798 6.92347C39.9834 6.74606 40.0511 6.54996 40.0789 6.34638C40.1069 6.14205 40.0941 5.93422 40.0414 5.73484C39.9887 5.53546 39.8971 5.34848 39.7718 5.18465C39.6465 5.02083 39.4901 4.88341 39.3115 4.78029C39.1329 4.67717 38.9357 4.6104 38.7312 4.58382C38.5266 4.55724 38.3189 4.57137 38.1199 4.62541C37.9209 4.67944 37.7345 4.7723 37.5715 4.89866C37.4091 5.02456 37.2731 5.18123 37.1713 5.3597L34.8932 9.30546L34.8932 9.30549C34.6858 9.66467 34.6296 10.0915 34.737 10.4921C34.8444 10.8927 35.1065 11.2342 35.4656 11.4416C35.8248 11.6489 36.2516 11.7051 36.6522 11.5978C37.0528 11.4905 37.3943 11.2284 37.6017 10.8692Z" fill="black" stroke="black" stroke-width="1.2"/>
</svg>
