<svg width="167" height="162" viewBox="0 0 167 162" fill="none" xmlns="http://www.w3.org/2000/svg">
<circle cx="46" cy="32" r="29" fill="#FFA336"/>
<path d="M32.5 29.5L27.5 34H26.5L40 48L64 23.5L59 17.5C52.6667 23.3333 39.8 35.1 39 35.5C38.2 35.9 34.3333 31.6667 32.5 29.5Z" fill="white"/>
<path d="M73 121.5L80 104.5L87.5 102.5L93.5 120.5L83.5 139L73 121.5Z" fill="#FF0000"/>
<path d="M141 111.5H134.5V112C132.667 118.167 128.9 130.6 128.5 131C128.1 131.4 130.667 133.833 132 135L139.5 140.5L146.5 133L141 111.5Z" fill="#FF0000"/>
<path d="M31.5418 111.5H25.0418V112C23.2085 118.167 19.4418 130.6 19.0418 131C18.6418 131.4 21.2085 133.833 22.5418 135L30.0418 140.5L37.0418 133L31.5418 111.5Z" fill="#FF0000"/>
<path d="M150.828 107.295C153.557 104.211 155.218 100.163 155.218 95.7311V90.3054C155.218 80.6717 147.38 72.8335 137.746 72.8335C128.112 72.8335 120.274 80.6713 120.274 90.3054V95.7311C120.274 100.164 121.936 104.214 124.667 107.297C122.287 107.881 120.022 108.88 117.98 110.254C114.616 105.46 109.808 101.752 104.192 99.7657C104.105 99.7295 104.017 99.6979 103.928 99.6725C102.6 99.2176 101.228 98.8581 99.8194 98.6034C103.3 95.2033 105.731 90.7382 106.585 85.7398C107.559 86.0348 108.577 86.1918 109.618 86.1918C115.375 86.1918 120.059 81.5079 120.059 75.7507C120.059 72.5111 118.569 69.5304 116.116 67.5814C116.395 66.9239 116.552 66.2029 116.552 65.4448V58.7347C116.552 47.2939 107.244 37.9864 95.8038 37.9864H90.2371C89.9772 37.9864 89.7173 37.9998 89.4584 38.02C87.4101 35.4795 84.2753 33.85 80.7654 33.85H77.7792C77.8062 33.3091 77.8248 32.7668 77.8248 32.2224C77.8248 14.4547 63.3697 0 45.6024 0C27.8352 0 13.3801 14.4551 13.3801 32.2224C13.3801 49.9896 27.8352 64.4447 45.6024 64.4447C47.1451 64.4447 48.6743 64.333 50.1824 64.1184V66.2667C50.1824 66.7855 50.255 67.288 50.3902 67.7644C48.0601 69.7252 46.6758 72.6284 46.6758 75.7504C46.6758 81.5076 51.3597 86.1915 57.1169 86.1915C58.1583 86.1915 59.1757 86.0339 60.149 85.7391C61.0035 90.7389 63.4362 95.2049 66.9177 98.6057C65.5337 98.8571 64.1839 99.2098 62.876 99.6556C62.7393 99.6904 62.6045 99.738 62.4719 99.7979C56.8954 101.795 52.1139 105.497 48.7623 110.27C46.752 108.909 44.4936 107.89 42.0701 107.294C44.7991 104.211 46.4602 100.162 46.4602 95.7305V90.3048C46.4602 80.671 38.6224 72.8329 28.9883 72.8329C19.3545 72.8329 11.5167 80.6707 11.5167 90.3048V95.7305C11.5167 100.162 13.1782 104.211 15.9068 107.294C6.78725 109.531 0 117.771 0 127.57V148.689C0 150.038 1.09354 151.132 2.4424 151.132C3.79125 151.132 4.88479 150.038 4.88479 148.689V127.57C4.88479 118.751 12.0592 111.576 20.8779 111.576H21.639C22.1743 111.826 22.724 112.048 23.2871 112.243L18.3994 131.32C17.9874 132.928 18.5059 134.607 19.7521 135.702L26.0923 141.276C26.9178 142.002 27.9527 142.364 28.988 142.364C30.0232 142.364 31.0585 142.002 31.884 141.276L38.2241 135.702C39.4704 134.607 39.9885 132.927 39.5766 131.32L34.6889 112.243C35.2519 112.048 35.8016 111.826 36.337 111.576H37.0977C40.5232 111.576 43.699 112.662 46.3042 114.502C44.6144 118.095 43.656 122.094 43.628 126.308C43.6192 127.657 44.7053 128.757 46.0541 128.766H46.0707C47.4121 128.766 48.504 127.684 48.5128 126.34C48.5753 116.917 54.2537 108.789 62.343 105.12L80.9247 140.511V158.928C80.9247 160.277 82.0182 161.37 83.3671 161.37C84.7159 161.37 85.8095 160.277 85.8095 158.928V140.511L104.395 105.113C112.54 108.796 118.226 116.993 118.226 126.498V158.947C118.226 160.296 119.319 161.39 120.668 161.39C122.017 161.39 123.11 160.296 123.11 158.947V126.498C123.11 122.207 122.15 118.137 120.436 114.488C123.117 112.602 126.332 111.576 129.636 111.576H130.397C130.932 111.825 131.482 112.048 132.045 112.242L127.157 131.319C126.745 132.927 127.263 134.606 128.51 135.702L134.85 141.276C135.676 142.001 136.711 142.364 137.746 142.364C138.781 142.364 139.816 142.001 140.642 141.276L146.982 135.702C148.228 134.606 148.747 132.927 148.335 131.319L147.554 128.273C147.22 126.966 145.89 126.179 144.582 126.513C143.275 126.848 142.488 128.178 142.822 129.485L143.527 132.236L137.746 137.318L131.965 132.236L136.848 113.18C137.145 113.195 137.445 113.203 137.746 113.203C138.047 113.203 138.347 113.195 138.645 113.18L139.886 118.023C140.169 119.127 141.161 119.86 142.25 119.86C142.451 119.86 142.655 119.835 142.858 119.783C144.165 119.448 144.953 118.118 144.618 116.811L143.448 112.243C144.015 112.047 144.569 111.823 145.108 111.571C145.144 111.573 145.18 111.577 145.217 111.577H145.857C154.676 111.577 161.85 118.751 161.85 127.57V148.69C161.85 150.039 162.944 151.132 164.292 151.132C165.641 151.132 166.735 150.039 166.735 148.69V127.57C166.734 117.771 159.947 109.531 150.828 107.295ZM16.4008 90.3054C16.4008 83.3648 22.0473 77.7183 28.988 77.7183C35.9286 77.7183 41.5751 83.3648 41.5751 90.3054V95.7311C41.5751 102.672 35.9286 108.318 28.988 108.318C22.0473 108.318 16.4012 102.672 16.4012 95.7311V90.3054H16.4008ZM34.769 132.236L28.9883 137.318L23.207 132.236L28.0892 113.18C28.3868 113.195 28.6864 113.203 28.988 113.203C29.2892 113.203 29.5888 113.195 29.8864 113.18L34.769 132.236ZM109.618 81.3067C108.664 81.3067 107.747 81.0647 106.928 80.6098V74.1358C106.928 73.1654 106.865 72.1809 106.742 71.1978C108.641 71.13 110.321 71.0011 111.639 70.8705C111.808 70.8539 111.974 70.8288 112.138 70.7972C113.994 71.7413 115.174 73.6444 115.174 75.7504C115.174 78.8145 112.681 81.3067 109.618 81.3067ZM95.8034 42.8709C104.551 42.8709 111.667 49.9874 111.667 58.7344V65.4445C111.667 65.7376 111.447 65.9805 111.156 66.0092C106.98 66.4237 98.9564 66.8422 92.1444 64.9879C91.0942 64.702 90.1019 64.2243 89.2161 63.5909C90.9405 60.9641 91.9301 57.8297 91.9301 54.5156V45.0146C91.9301 44.2813 91.8568 43.5648 91.7214 42.8705H95.8034V42.8709ZM63.5313 58.9985C64.6515 58.2469 64.9505 56.7297 64.1988 55.6094C63.4472 54.4892 61.93 54.1906 60.8098 54.9418C56.306 57.9629 51.0474 59.5599 45.6018 59.5599C30.5277 59.5599 18.2642 47.2962 18.2642 32.2224C18.2642 17.1485 30.528 4.88479 45.6018 4.88479C60.6756 4.88479 72.9394 17.1485 72.9394 32.2224C72.9394 37.5833 71.387 42.7742 68.4502 47.234C67.7084 48.3604 68.0204 49.875 69.1468 50.6169C70.2729 51.3587 71.7879 51.047 72.5297 49.9203C74.7848 46.496 76.3424 42.7058 77.1585 38.7344H80.7645C84.2275 38.7344 87.0447 41.5517 87.0447 45.0146V54.5156C87.0447 59.7306 83.5846 64.3148 78.6301 65.6633C70.0271 68.0054 59.6345 67.259 55.5655 66.8298C55.2805 66.7998 55.0659 66.5575 55.0659 66.2664V63.0298C58.0518 62.1143 60.9006 60.7632 63.5313 58.9985ZM51.5603 75.7504C51.5603 74.0153 52.3653 72.4089 53.707 71.3658C54.1323 71.5254 54.582 71.6381 55.0535 71.6879C56.3926 71.8292 58.0414 71.9715 59.9009 72.0679C59.8393 72.7606 59.8058 73.4516 59.8058 74.1358V80.6098C58.9868 81.065 58.0707 81.3067 57.1166 81.3067C54.0528 81.3067 51.5603 78.8145 51.5603 75.7504ZM64.6906 81.7597V74.1358C64.6906 73.4926 64.7293 72.84 64.7987 72.1861C69.5386 72.1659 74.9281 71.7341 79.9139 70.3771C82.1736 69.762 84.2144 68.6762 85.9472 67.244C87.4078 68.3737 89.0803 69.2168 90.8617 69.7017C94.4455 70.6774 98.282 71.091 101.808 71.2092C101.963 72.1891 102.044 73.1732 102.044 74.1365V81.7603C102.044 92.0588 93.6652 100.437 83.3671 100.437C73.069 100.437 64.6906 92.0581 64.6906 81.7597ZM83.3671 134.655L75.88 120.395L81.4295 105.235C82.069 105.287 82.7142 105.321 83.3671 105.321C84.02 105.321 84.6648 105.287 85.3047 105.235L90.8542 120.395L83.3671 134.655ZM71.9712 103.036H73.2536C74.3159 103.543 75.4221 103.97 76.5642 104.316L72.815 114.557L67.0434 103.564C68.6342 103.221 70.2817 103.036 71.9712 103.036ZM93.9189 114.557L90.17 104.316C91.3133 103.97 92.4212 103.542 93.4845 103.034C93.4962 103.034 93.5076 103.036 93.5193 103.036H94.763C96.4538 103.036 98.1019 103.22 99.6924 103.561L93.9189 114.557ZM125.159 95.7308V90.3051C125.159 83.3645 130.806 77.718 137.746 77.718C144.687 77.718 150.333 83.3645 150.333 90.3051V95.7308C150.333 102.671 144.687 108.318 137.746 108.318C130.806 108.318 125.159 102.671 125.159 95.7308Z" fill="black"/>
<path d="M92.5593 142.321H92.5033C92.5007 142.321 92.4984 142.321 92.4961 142.321C91.1505 142.321 90.0576 143.41 90.0537 144.757C90.0498 146.106 91.1401 147.202 92.4893 147.206H92.5456H92.5525C93.8981 147.206 94.9909 146.117 94.9949 144.771C94.9984 143.422 93.9081 142.325 92.5593 142.321Z" fill="black"/>
<path d="M65.9783 20.621L61.5651 16.2077C60.8141 15.4568 59.816 15.0432 58.7544 15.0432C57.6927 15.0432 56.6946 15.4568 55.944 16.2074L39.8059 32.3451L35.2595 27.7987C34.5089 27.0481 33.5107 26.6345 32.4491 26.6345C31.3875 26.6345 30.3894 27.0481 29.6387 27.7987L25.2248 32.2123C23.6751 33.7621 23.6751 36.2833 25.2248 37.833L35.9121 48.5203C36.9858 49.594 38.3955 50.1307 39.8059 50.1307C41.216 50.1307 42.6264 49.594 43.7001 48.5203L65.9786 26.2418C67.5281 24.6923 67.5281 22.1711 65.9783 20.621ZM40.2462 45.0661C40.0033 45.3087 39.6089 45.3087 39.3663 45.0661L29.3228 35.0223L32.4494 31.8957L38.0793 37.5256C39.0328 38.4795 40.5794 38.4795 41.5332 37.5256L58.7547 20.3048L61.8813 23.431L40.2462 45.0661Z" fill="black"/>
</svg>
