<svg width="123" height="156" viewBox="0 0 123 156" fill="none" xmlns="http://www.w3.org/2000/svg">
<path d="M62 30L16 30L16 47L61.1402 47L62 30Z" fill="#FFA336"/>
<path d="M112 99L93 99L93 116L111.645 116L112 99Z" fill="#FF0000"/>
<path d="M111.11 0.500488H11.3377C5.08596 0.500488 0 5.58644 0 11.8382V143.961C0 150.212 5.08596 155.298 11.3377 155.298H111.11C117.362 155.298 122.447 150.212 122.447 143.961V11.8382C122.447 5.58644 117.362 0.500488 111.11 0.500488ZM117.912 143.961C117.912 147.712 114.861 150.763 111.11 150.763H11.3377C7.58691 150.763 4.53509 147.712 4.53509 143.961V11.8382C4.53509 8.08709 7.58691 5.03558 11.3377 5.03558H111.11C114.861 5.03558 117.912 8.08709 117.912 11.8382V143.961Z" fill="black"/>
<path d="M29.4782 69.1316H11.3379C10.0853 69.1316 9.07031 70.1468 9.07031 71.3991V89.5395C9.07031 90.7918 10.0853 91.8071 11.3379 91.8071H29.4782C30.7308 91.8071 31.7458 90.7918 31.7458 89.5395V71.3991C31.7458 70.1468 30.7308 69.1316 29.4782 69.1316ZM27.2107 87.272H13.6054V73.6667H27.2107V87.272Z" fill="black"/>
<path d="M56.6887 69.1316H38.5483C37.2957 69.1316 36.2808 70.1468 36.2808 71.3991V89.5395C36.2808 90.7918 37.2957 91.8071 38.5483 91.8071H56.6887C57.9413 91.8071 58.9562 90.7918 58.9562 89.5395V71.3991C58.9562 70.1468 57.9413 69.1316 56.6887 69.1316ZM54.4211 87.272H40.8159V73.6667H54.4211V87.272Z" fill="black"/>
<path d="M83.8991 69.1316H65.7588C64.5062 69.1316 63.4912 70.1468 63.4912 71.3991V89.5395C63.4912 90.7918 64.5062 91.8071 65.7588 91.8071H83.8991C85.1517 91.8071 86.1667 90.7918 86.1667 89.5395V71.3991C86.1667 70.1468 85.1517 69.1316 83.8991 69.1316ZM81.6316 87.272H68.0263V73.6667H81.6316V87.272Z" fill="black"/>
<path d="M111.11 95.9021H92.9697C91.7171 95.9021 90.7021 96.9174 90.7021 98.1696V116.31C90.7021 117.562 91.7171 118.578 92.9697 118.578H111.11C112.363 118.578 113.378 117.562 113.378 116.31V98.1696C113.378 96.9174 112.363 95.9021 111.11 95.9021ZM108.843 114.042H95.2372V100.437H108.843V114.042Z" fill="black"/>
<path d="M106.304 26.4543H88.1635C86.9109 26.4543 85.896 27.4696 85.896 28.7219V46.8623C85.896 48.1146 86.9109 49.1298 88.1635 49.1298H106.304C107.557 49.1298 108.571 48.1146 108.571 46.8623V28.7219C108.571 27.4696 107.557 26.4543 106.304 26.4543ZM104.036 44.5947H90.4311V30.9894H104.036V44.5947Z" fill="black"/>
<path d="M29.4782 96.342H11.3379C10.0853 96.342 9.07031 97.3573 9.07031 98.6096V116.75C9.07031 118.002 10.0853 119.018 11.3379 119.018H29.4782C30.7308 119.018 31.7458 118.002 31.7458 116.75V98.6096C31.7458 97.3573 30.7308 96.342 29.4782 96.342ZM27.2107 114.482H13.6054V100.877H27.2107V114.482Z" fill="black"/>
<path d="M56.6887 96.342H38.5483C37.2957 96.342 36.2808 97.3573 36.2808 98.6096V116.75C36.2808 118.002 37.2957 119.018 38.5483 119.018H56.6887C57.9413 119.018 58.9562 118.002 58.9562 116.75V98.6096C58.9562 97.3573 57.9413 96.342 56.6887 96.342ZM54.4211 114.482H40.8159V100.877H54.4211V114.482Z" fill="black"/>
<path d="M83.8991 96.342H65.7588C64.5062 96.342 63.4912 97.3573 63.4912 98.6096V116.75C63.4912 118.002 64.5062 119.018 65.7588 119.018H83.8991C85.1517 119.018 86.1667 118.002 86.1667 116.75V98.6096C86.1667 97.3573 85.1517 96.342 83.8991 96.342ZM81.6316 114.482H68.0263V100.877H81.6316V114.482Z" fill="black"/>
<path d="M29.4782 123.553H11.3379C10.0853 123.553 9.07031 124.568 9.07031 125.82V143.961C9.07031 145.213 10.0853 146.228 11.3379 146.228H29.4782C30.7308 146.228 31.7458 145.213 31.7458 143.961V125.82C31.7458 124.568 30.7308 123.553 29.4782 123.553ZM27.2107 141.693H13.6054V128.088H27.2107V141.693Z" fill="black"/>
<path d="M56.6887 123.553H38.5483C37.2957 123.553 36.2808 124.568 36.2808 125.82V143.961C36.2808 145.213 37.2957 146.228 38.5483 146.228H56.6887C57.9413 146.228 58.9562 145.213 58.9562 143.961V125.82C58.9562 124.568 57.9413 123.553 56.6887 123.553ZM54.4211 141.693H40.8159V128.088H54.4211V141.693Z" fill="black"/>
<path d="M83.8991 123.553H65.7588C64.5062 123.553 63.4912 124.568 63.4912 125.82V143.961C63.4912 145.213 64.5062 146.228 65.7588 146.228H83.8991C85.1517 146.228 86.1667 145.213 86.1667 143.961V125.82C86.1667 124.568 85.1517 123.553 83.8991 123.553ZM81.6316 141.693H68.0263V128.088H81.6316V141.693Z" fill="black"/>
<path d="M13.707 28.7218L13.707 46.8622C13.707 48.1148 14.7223 49.1298 15.9746 49.1298L34.1149 49.1298C35.3672 49.1298 36.3825 48.1148 36.3825 46.8622C36.3825 45.6096 35.3672 44.5947 34.1149 44.5947L18.2421 44.5947L18.2421 30.9894L59.058 30.9894L59.058 44.5947L43.1851 44.5947C41.9328 44.5947 40.9176 45.6096 40.9176 46.8622C40.9176 48.1148 41.9328 49.1298 43.1851 49.1298L61.3255 49.1298C62.5778 49.1298 63.5931 48.1148 63.5931 46.8622L63.5931 28.7218C63.5931 27.4692 62.5778 26.4543 61.3255 26.4543L15.9746 26.4543C14.7223 26.4543 13.707 27.4693 13.707 28.7218Z" fill="black"/>
</svg>
