<svg width="160" height="154" viewBox="0 0 160 154" fill="none" xmlns="http://www.w3.org/2000/svg">
<path d="M153.5 116H5.5L4 114L1 9L8 3H151.5L157.5 7.5V110.5L153.5 116Z" fill="#FFA336"/>
<path d="M12.5 96.5V14H146L147 96.5H12.5Z" fill="white"/>
<path d="M38 70L21 70L21 85L37.6822 85L38 70Z" fill="#FF0000"/>
<path d="M38 47L21 47L21 62L37.6822 62L38 47Z" fill="#FF0000"/>
<path d="M38 24L21 24L21 39L37.6822 39L38 24Z" fill="#FF0000"/>
<path d="M150.996 0.500488H8.63638C3.87421 0.500488 0 4.37439 0 9.13687V109.924C0 114.686 3.87421 118.56 8.63638 118.56H22.4484C23.7401 118.56 24.7867 117.513 24.7867 116.222C24.7867 114.93 23.7401 113.883 22.4484 113.883H8.63638C6.45297 113.883 4.67674 112.107 4.67674 109.924V9.13687C4.67674 6.95345 6.45297 5.17723 8.63638 5.17723H150.996C153.18 5.17723 154.956 6.95345 154.956 9.13687V109.924C154.956 112.107 153.18 113.883 150.996 113.883H33.3607C32.069 113.883 31.0224 114.93 31.0224 116.222C31.0224 117.513 32.069 118.56 33.3607 118.56H58.4405C57.9953 122.667 56.1589 131.563 48.6312 139.079H40.7625C38.431 139.079 36.5344 140.975 36.5344 143.307V149.608C36.5344 151.939 38.431 153.836 40.7625 153.836H98.9255C100.217 153.836 101.264 152.789 101.264 151.497C101.264 150.206 100.217 149.159 98.9255 149.159H41.2114V143.756H118.421V149.159H109.838C108.546 149.159 107.5 150.206 107.5 151.497C107.5 152.789 108.546 153.836 109.838 153.836H118.87C121.202 153.836 123.098 151.939 123.098 149.608V143.307C123.098 140.975 121.202 139.079 118.87 139.079H111.002C103.516 131.6 101.659 122.677 101.201 118.56H150.996C155.758 118.56 159.633 114.686 159.633 109.924V9.13687C159.633 4.37439 155.758 0.500488 150.996 0.500488ZM104.739 139.079H54.8937C61.2391 131.095 62.7787 122.603 63.1457 118.56H96.4868C96.854 122.603 98.3936 131.095 104.739 139.079Z" fill="black"/>
<path d="M131.663 99.0332H147.215C148.506 99.0332 149.553 97.9865 149.553 96.6948V12.9188C149.553 11.6271 148.506 10.5804 147.215 10.5804H12.4184C11.1267 10.5804 10.0801 11.6271 10.0801 12.9188V96.6948C10.0801 97.9865 11.1267 99.0332 12.4184 99.0332H120.75C122.042 99.0332 123.089 97.9865 123.089 96.6948C123.089 95.4031 122.042 94.3564 120.75 94.3564H14.7568V15.2572H144.876V94.3564H131.663C130.371 94.3564 129.324 95.4031 129.324 96.6948C129.324 97.9865 130.371 99.0332 131.663 99.0332Z" fill="black"/>
<path d="M39.3209 25.831C39.3209 24.5393 38.2743 23.4927 36.9825 23.4927H22.4946C21.2029 23.4927 20.1562 24.5393 20.1562 25.831V38.4289C20.1562 39.7207 21.2029 40.7673 22.4946 40.7673H36.9825C38.2743 40.7673 39.3209 39.7207 39.3209 38.4289V25.831ZM34.6442 36.0906H24.833V28.1694H34.6442V36.0906Z" fill="black"/>
<path d="M49.5806 40.7672H88.6345C89.9262 40.7672 90.9728 39.7205 90.9728 38.4288C90.9728 37.1371 89.9262 36.0905 88.6345 36.0905H49.5806C48.2888 36.0905 47.2422 37.1371 47.2422 38.4288C47.2422 39.7205 48.2892 40.7672 49.5806 40.7672Z" fill="black"/>
<path d="M99.973 23.4927H67.8481C66.5564 23.4927 65.5098 24.5393 65.5098 25.831C65.5098 27.1228 66.5564 28.1694 67.8481 28.1694H99.973C101.265 28.1694 102.311 27.1228 102.311 25.831C102.311 24.5393 101.265 23.4927 99.973 23.4927Z" fill="black"/>
<path d="M49.5806 28.1694H56.8242C58.1159 28.1694 59.1626 27.1228 59.1626 25.831C59.1626 24.5393 58.1159 23.4927 56.8242 23.4927H49.5806C48.2888 23.4927 47.2422 24.5393 47.2422 25.831C47.2422 27.1228 48.2892 28.1694 49.5806 28.1694Z" fill="black"/>
<path d="M39.3209 48.5072C39.3209 47.2155 38.2743 46.1688 36.9825 46.1688H22.4946C21.2029 46.1688 20.1562 47.2155 20.1562 48.5072V61.1051C20.1562 62.3968 21.2029 63.4435 22.4946 63.4435H36.9825C38.2743 63.4435 39.3209 62.3968 39.3209 61.1051V48.5072ZM34.6442 58.7667H24.833V50.8456H34.6442V58.7667Z" fill="black"/>
<path d="M49.5806 63.4435H88.6345C89.9262 63.4435 90.9728 62.3968 90.9728 61.1051C90.9728 59.8134 89.9262 58.7667 88.6345 58.7667H49.5806C48.2888 58.7667 47.2422 59.8134 47.2422 61.1051C47.2422 62.3968 48.2892 63.4435 49.5806 63.4435Z" fill="black"/>
<path d="M99.973 46.1688H67.8481C66.5564 46.1688 65.5098 47.2155 65.5098 48.5072C65.5098 49.7989 66.5564 50.8456 67.8481 50.8456H99.973C101.265 50.8456 102.311 49.7989 102.311 48.5072C102.311 47.2155 101.265 46.1688 99.973 46.1688Z" fill="black"/>
<path d="M49.5806 50.8456H56.8242C58.1159 50.8456 59.1626 49.7989 59.1626 48.5072C59.1626 47.2155 58.1159 46.1688 56.8242 46.1688H49.5806C48.2888 46.1688 47.2422 47.2155 47.2422 48.5072C47.2422 49.7989 48.2892 50.8456 49.5806 50.8456Z" fill="black"/>
<path d="M36.9825 68.8455H22.4946C21.2029 68.8455 20.1562 69.8921 20.1562 71.1838V83.782C20.1562 85.0737 21.2029 86.1204 22.4946 86.1204H36.9825C38.2743 86.1204 39.3209 85.0737 39.3209 83.782V71.1838C39.3209 69.8921 38.2743 68.8455 36.9825 68.8455ZM34.6442 81.4437H24.833V73.5222H34.6442V81.4437Z" fill="black"/>
<path d="M49.5806 86.1203H88.6345C89.9262 86.1203 90.9728 85.0737 90.9728 83.782C90.9728 82.4903 89.9262 81.4436 88.6345 81.4436H49.5806C48.2888 81.4436 47.2422 82.4903 47.2422 83.782C47.2422 85.0737 48.2892 86.1203 49.5806 86.1203Z" fill="black"/>
<path d="M102.311 71.1838C102.311 69.8921 101.265 68.8455 99.973 68.8455H67.8481C66.5564 68.8455 65.5098 69.8921 65.5098 71.1838C65.5098 72.4755 66.5564 73.5222 67.8481 73.5222H99.973C101.265 73.5222 102.311 72.4752 102.311 71.1838Z" fill="black"/>
<path d="M49.5806 73.5222H56.8242C58.1159 73.5222 59.1626 72.4755 59.1626 71.1838C59.1626 69.8921 58.1159 68.8455 56.8242 68.8455H49.5806C48.2888 68.8455 47.2422 69.8921 47.2422 71.1838C47.2422 72.4755 48.2892 73.5222 49.5806 73.5222Z" fill="black"/>
<path d="M139.473 64.7175C139.429 63.7242 138.762 62.8674 137.809 62.5818L110.723 54.4561C109.899 54.2086 109.006 54.4343 108.398 55.0423C107.79 55.6505 107.564 56.5438 107.812 57.3678L115.937 84.4537C116.223 85.4062 117.08 86.0734 118.073 86.1176C118.108 86.1195 118.143 86.1201 118.178 86.1201C119.13 86.1201 119.992 85.5408 120.348 84.6501L125.393 72.0375L138.006 66.9926C138.929 66.6237 139.517 65.7108 139.473 64.7175ZM122.726 68.0676C122.131 68.3055 121.661 68.776 121.423 69.3705L118.493 76.6962L113.539 60.1836L130.052 65.1375L122.726 68.0676Z" fill="black"/>
</svg>
