<svg width="135" height="170" viewBox="0 0 135 170" fill="none" xmlns="http://www.w3.org/2000/svg">
<path d="M27 45.5C27.3333 41.6667 27.9 33.9 27.5 33.5L31 32.5L40 39.5C40.3333 41.1667 41 44.7 41 45.5C41 46.3 39.6667 45.8333 39 45.5H27Z" fill="#FF0000"/>
<path d="M100.5 141.5V88H85V140.5L100.5 141.5Z" fill="#FF0000"/>
<path d="M53 142V117H37V141.533L53 142Z" fill="#FF0000"/>
<path d="M77 142V100H61V141.215L77 142Z" fill="#FFA336"/>
<path d="M28 142V131H12V141.794L28 142Z" fill="#FFA336"/>
<path d="M26.5 46V32.5H22.5L15 38L12 49.5L18 58.5L28 61.5L36.5 58.5L40.5 51.5V46H26.5Z" fill="#FFA336"/>
<path d="M111.287 0H2.24877C1.00655 0 0 1.00685 0 2.24877V109.069C0 110.31 1.00655 111.317 2.24877 111.317C3.491 111.317 4.49755 110.31 4.49755 109.069V4.49755H109.039V18.6348C109.039 19.8768 110.045 20.8836 111.287 20.8836C112.53 20.8836 113.536 19.8768 113.536 18.6348V2.24877C113.536 1.00685 112.53 0 111.287 0V0Z" fill="black"/>
<path d="M111.287 26.8802C110.045 26.8802 109.039 27.8871 109.039 29.129V149.019H4.49755V119.563C4.49755 118.321 3.491 117.314 2.24877 117.314C1.00655 117.314 0 118.321 0 119.563V151.267C0 152.509 1.00655 153.516 2.24877 153.516H111.287C112.53 153.516 113.536 152.509 113.536 151.267V29.129C113.536 27.8871 112.53 26.8802 111.287 26.8802Z" fill="black"/>
<path d="M9.69238 46.7727C9.69238 56.3632 17.4947 64.1656 27.0853 64.1656C36.6759 64.1656 44.4782 56.3632 44.4782 46.7727C44.4782 37.1821 36.6759 29.3798 27.0853 29.3798C17.4947 29.3798 9.69238 37.1821 9.69238 46.7727ZM27.0853 59.668C19.9747 59.668 14.1899 53.8833 14.1899 46.7727C14.1899 40.4293 18.7948 35.145 24.8365 34.0776V46.7727C24.8365 48.0146 25.8431 49.0215 27.0853 49.0215H39.7804C38.7126 55.0632 33.4286 59.668 27.0853 59.668ZM39.7804 44.5239H29.3341V34.0776C34.6448 35.0161 38.8419 39.2132 39.7804 44.5239Z" fill="black"/>
<path d="M13.1526 129.634C11.9104 129.634 10.9038 130.641 10.9038 131.883V141.575C10.9038 142.817 11.9104 143.824 13.1526 143.824H27.691C28.9333 143.824 29.9398 142.817 29.9398 141.575V131.883C29.9398 130.641 28.9333 129.634 27.691 129.634H13.1526ZM25.4423 139.326H15.4014V134.132H25.4423V139.326Z" fill="black"/>
<path d="M37.3835 143.824H51.9217C53.1639 143.824 54.1705 142.817 54.1705 141.575V117.344C54.1705 116.103 53.1639 115.096 51.9217 115.096H37.3835C36.1413 115.096 35.1348 116.103 35.1348 117.344V141.575C35.1348 142.817 36.1413 143.824 37.3835 143.824ZM39.6323 119.593H49.6729V139.326H39.6323V119.593Z" fill="black"/>
<path d="M61.614 96.9227C60.3718 96.9227 59.3652 97.9296 59.3652 99.1715V141.575C59.3652 142.817 60.3718 143.824 61.614 143.824H76.1522C77.3944 143.824 78.401 142.817 78.401 141.575V99.1715C78.401 97.9296 77.3944 96.9227 76.1522 96.9227H61.614ZM73.9034 139.326H63.8628V101.42H73.9034V139.326Z" fill="black"/>
<path d="M100.382 97.2369C101.625 97.2369 102.631 96.2301 102.631 94.9882V87.0575C102.631 85.8156 101.625 84.8087 100.382 84.8087H85.8464C84.6042 84.8087 83.5977 85.8156 83.5977 87.0575V141.574C83.5977 142.816 84.6042 143.823 85.8464 143.823H100.382C101.624 143.823 102.631 142.816 102.631 141.574V105.482C102.631 104.241 101.624 103.234 100.382 103.234C99.14 103.234 98.1334 104.241 98.1334 105.482V139.325H88.0952V89.3063H98.1334V94.9882C98.1337 96.2301 99.1403 97.2369 100.382 97.2369Z" fill="black"/>
<path d="M80.9987 9.69226H32.5373C31.2951 9.69226 30.2886 10.6991 30.2886 11.941V21.6333C30.2886 22.8752 31.2951 23.882 32.5373 23.882H80.999C82.2412 23.882 83.2478 22.8752 83.2478 21.6333V11.941C83.2475 10.6991 82.2409 9.69226 80.9987 9.69226ZM78.7499 19.3845H34.7861V14.1898H78.7502V19.3845H78.7499Z" fill="black"/>
<path d="M101.595 29.3798H56.7678C55.5256 29.3798 54.519 30.3866 54.519 31.6285C54.519 32.8705 55.5256 33.8773 56.7678 33.8773H101.595C102.837 33.8773 103.843 32.8705 103.843 31.6285C103.843 30.3866 102.836 29.3798 101.595 29.3798Z" fill="black"/>
<path d="M101.595 39.4758H56.7678C55.5256 39.4758 54.519 40.4827 54.519 41.7246C54.519 42.9665 55.5256 43.9734 56.7678 43.9734H101.595C102.837 43.9734 103.843 42.9665 103.843 41.7246C103.843 40.4827 102.836 39.4758 101.595 39.4758Z" fill="black"/>
<path d="M103.843 51.8207C103.843 50.5788 102.837 49.5719 101.595 49.5719H56.7678C55.5256 49.5719 54.519 50.5788 54.519 51.8207C54.519 53.0626 55.5256 54.0694 56.7678 54.0694H101.595C102.836 54.0694 103.843 53.0626 103.843 51.8207Z" fill="black"/>
<path d="M85.6706 61.9169C85.6706 60.6749 84.664 59.6681 83.4218 59.6681H56.7678C55.5256 59.6681 54.519 60.6749 54.519 61.9169C54.519 63.1588 55.5256 64.1656 56.7678 64.1656H83.4218C84.6637 64.1656 85.6706 63.1588 85.6706 61.9169Z" fill="black"/>
<path d="M56.768 74.5093H15.8787C14.6364 74.5093 13.6299 75.5161 13.6299 76.7581C13.6299 78 14.6364 79.0068 15.8787 79.0068H56.768C58.0102 79.0068 59.0167 78 59.0167 76.7581C59.0167 75.5161 58.0102 74.5093 56.768 74.5093Z" fill="black"/>
<path d="M59.0167 86.8541C59.0167 85.6122 58.0102 84.6053 56.768 84.6053H15.8787C14.6364 84.6053 13.6299 85.6122 13.6299 86.8541C13.6299 88.096 14.6364 89.1029 15.8787 89.1029H56.768C58.0102 89.1029 59.0167 88.096 59.0167 86.8541Z" fill="black"/>
<path d="M40.844 96.9503C40.844 95.7084 39.8374 94.7015 38.5952 94.7015H15.8787C14.6364 94.7015 13.6299 95.7084 13.6299 96.9503C13.6299 98.1922 14.6364 99.1991 15.8787 99.1991H38.5952C39.8371 99.1991 40.844 98.1922 40.844 96.9503Z" fill="black"/>
<path d="M113.508 164.957L105.741 140.284L130.413 149.879L117.62 154.905L113.508 164.957Z" fill="white"/>
<path d="M134.76 148.36C134.716 147.367 134.049 146.51 133.096 146.224L106.01 138.099C105.186 137.851 104.293 138.077 103.685 138.685C103.077 139.293 102.851 140.187 103.099 141.011L111.224 168.096C111.51 169.049 112.367 169.716 113.36 169.76C113.395 169.762 113.43 169.763 113.465 169.763C114.417 169.763 115.279 169.184 115.635 168.293L120.68 155.68L133.293 150.635C134.216 150.266 134.804 149.354 134.76 148.36ZM118.013 151.71C117.419 151.948 116.948 152.419 116.71 153.013L113.78 160.339L108.826 143.826L125.339 148.78L118.013 151.71Z" fill="black"/>
</svg>
