<svg width="79" height="79" viewBox="0 0 79 79" fill="none" xmlns="http://www.w3.org/2000/svg">
<path d="M36.6007 57.0204C39.1375 57.0204 41.5101 56.0204 43.2814 54.2047L59.0177 38.0709C62.6092 34.3881 62.5347 28.47 58.8515 24.8781C55.1684 21.287 49.2491 21.3615 45.6576 25.0438L36.4262 34.5078L34.809 32.9354C31.1206 29.3503 25.2017 29.4323 21.6146 33.1203C18.0287 36.8083 18.1116 42.7264 21.8 46.3127L30.0966 54.3796C31.848 56.0825 34.1581 57.0204 36.6007 57.0204ZM25.9291 37.3147C27.2037 36.0041 29.3064 35.9769 30.615 37.2494L34.3855 40.9158C35.5752 42.0731 37.4774 42.0471 38.6367 40.8594L49.9652 29.245C51.2414 27.9364 53.3434 27.9112 54.6508 29.1858C55.959 30.4615 55.985 32.5631 54.71 33.8709L38.9737 50.0043C37.7576 51.3049 35.5423 51.3325 34.2914 50.0667L25.9947 41.9998C24.6854 40.7261 24.6553 38.6241 25.9291 37.3147Z" fill="white"/>
<path d="M13.345 59.0679C12.3442 57.7417 10.4584 57.4775 9.13098 58.4783C7.80438 59.4791 7.54098 61.3653 8.54134 62.6915C9.63696 64.1434 10.8491 65.5356 12.1429 66.8294C19.54 74.2258 29.3751 78.2989 39.8362 78.2989C50.2973 78.2989 60.1319 74.2258 67.5291 66.8294C74.9267 59.4334 79.0001 49.5996 79.0001 39.1401C79.0001 28.6802 74.9263 18.8468 67.5291 11.4508C52.2588 -3.81713 27.4132 -3.81673 12.1429 11.4508C1.7322 21.8599 -1.95178 37.0445 2.5288 51.0791C3.03398 52.6619 4.72806 53.5346 6.30965 53.0302C7.89245 52.525 8.76631 50.8321 8.26073 49.2497C4.46786 37.3696 7.58582 24.5159 16.3981 15.7052C29.3214 2.78305 50.3509 2.78305 63.2743 15.7052C69.535 21.9651 72.9832 30.2878 72.9832 39.1405C72.9832 47.9932 69.535 56.3159 63.2743 62.5758C57.0139 68.8353 48.69 72.2831 39.8362 72.2831C30.9827 72.2831 22.6584 68.8357 16.3977 62.5758C15.3 61.4774 14.2729 60.2977 13.345 59.0679Z" fill="white"/>
</svg>
