<svg width="912" height="732" viewBox="0 0 912 732" fill="none" xmlns="http://www.w3.org/2000/svg">
<g opacity="0.3">
<path d="M88.0856 574.439C91.4219 571.217 93.5009 566.702 93.5009 561.711C93.5009 556.78 91.4199 552.035 87.7924 548.693C87.1799 548.129 86.2278 548.169 85.6633 548.779C85.0989 549.392 85.1391 550.344 85.7496 550.908C88.7606 553.682 90.4879 557.619 90.4879 561.711C90.4879 572.525 79.1689 579.542 69.572 575.005C69.1986 574.829 68.9499 574.462 68.9254 574.05C68.8037 572.005 67.9195 565.5 61.6917 560.962C61.3582 560.719 61.1799 560.314 61.2299 559.905C62.3767 550.517 72.1718 544.518 81.144 548.028C81.9192 548.329 82.793 547.948 83.0963 547.173C83.3995 546.397 83.016 545.523 82.2406 545.222C71.7688 541.13 60.3316 547.753 58.3886 558.56C58.3465 558.795 58.0954 558.925 57.8742 558.835C53.6089 557.11 48.8406 557.134 44.6379 558.836C44.4176 558.925 44.1677 558.796 44.1256 558.562C42.6366 550.302 35.3952 544.013 26.711 544.013C26.711 544.013 26.711 544.013 26.709 544.013C19.1507 544.013 12.4237 548.815 9.96918 555.96C9.69799 556.747 10.1178 557.603 10.9051 557.874C11.6904 558.143 12.5482 557.726 12.8192 556.938C14.8539 551.009 20.4378 547.026 26.7108 547.026C34.1952 547.026 40.39 552.655 41.2833 559.902C41.3335 560.31 41.1589 560.715 40.8271 560.957C36.591 564.057 33.9264 568.888 33.5988 574.046C33.5727 574.457 33.3265 574.823 32.9545 574.999C23.7054 579.379 12.4769 573.051 12.0377 562.317C12.0035 561.486 11.3046 560.843 10.471 560.873C9.63948 560.907 8.99471 561.608 9.02693 562.44C9.20977 566.899 11.0415 571.071 14.1971 574.222C6.15039 575.574 0 582.588 0 591.012V615.927C0 619.214 2.66465 621.879 5.95154 621.879H24.5472V629.464C24.5472 632.752 27.2128 635.417 30.5007 635.417L70.8398 635.415C74.0456 635.343 76.6547 632.673 76.6547 629.463V621.879H95.2484C98.5365 621.879 101.202 619.213 101.202 615.925V591.012C101.202 582.97 95.5939 576.213 88.0856 574.439ZM44.3964 562.267C53.5878 557.387 65.0019 563.494 65.8866 573.987C65.8807 573.987 65.8765 573.987 65.8726 573.989H65.8866C65.9813 575.073 65.9433 576.182 65.8344 577C65.8204 577.002 65.8044 577.002 65.7882 577.002H65.8344C65.4517 580.889 63.1199 585.014 59.3045 587.521H59.2964V587.527C56.173 589.578 52.539 590.271 49.1408 589.777V589.769C49.1389 589.771 49.1389 589.773 49.1389 589.777C47.3973 589.572 45.1392 588.794 43.2075 587.521C33.8176 581.348 34.5579 567.472 44.3964 562.267ZM70.7332 632.404H30.5007C28.8767 632.404 27.5601 631.088 27.5601 629.463V604.551C27.5601 601.405 28.5785 598.432 30.5047 595.956C31.0148 595.299 30.8964 594.353 30.2396 593.841C29.5828 593.33 28.6368 593.449 28.1244 594.106C25.7843 597.117 24.5472 600.728 24.5472 604.55V618.866H5.95154C4.32856 618.866 3.01293 617.55 3.01293 615.927V591.013C3.01293 583.273 9.28725 576.999 17.027 576.999H17.7862C22.2943 579.637 27.7192 580.102 32.5311 578.423C33.1741 578.198 33.8621 578.583 34.0159 579.246C34.6306 581.897 35.8429 584.322 37.502 586.37C38.0142 587.003 37.6959 587.948 36.913 588.171C35.5746 588.551 34.2841 589.094 33.0758 589.791C32.3548 590.209 32.1077 591.129 32.5234 591.85C32.939 592.571 33.8611 592.818 34.5822 592.403C37.9851 590.435 41.0917 590.524 42.0755 590.538C42.2662 590.541 42.4512 590.594 42.6177 590.687C48.0683 593.748 54.6674 593.633 59.8524 590.712C60.0426 590.605 60.2584 590.548 60.476 590.561C67.7897 590.998 73.6418 597.088 73.6418 604.551C73.642 609.58 73.642 624.435 73.642 629.464C73.6418 631.096 72.2803 632.404 70.7332 632.404ZM98.189 615.927C98.189 617.548 96.8694 618.866 95.2484 618.866H76.6547V604.551C76.6547 596.506 71.0487 589.747 63.5364 587.976C66.4315 585.183 68.1868 581.618 68.7487 577.939C73.7799 580.141 79.742 579.895 84.689 577.009C92.1771 577.28 98.189 583.458 98.189 591.013V615.927Z" fill="white"/>
</g>
<g opacity="0.3">
<path d="M544.437 644.796C534.88 635.239 522.173 629.976 508.657 629.976C495.141 629.976 482.434 635.239 472.876 644.796C463.319 654.354 458.056 667.061 458.056 680.577C458.056 694.093 463.319 706.8 472.876 716.357C482.433 725.915 495.141 731.178 508.657 731.178C522.173 731.178 534.88 725.914 544.437 716.357C553.994 706.8 559.258 694.093 559.258 680.577C559.258 667.061 553.994 654.354 544.437 644.796ZM542.201 714.121C533.241 723.081 521.328 728.015 508.657 728.015C495.985 728.015 484.072 723.081 475.113 714.121C466.153 705.161 461.218 693.248 461.218 680.577C461.218 667.906 466.153 655.993 475.113 647.033C484.072 638.073 495.985 633.138 508.657 633.138C521.328 633.138 533.241 638.073 542.201 647.033C551.161 655.993 556.095 667.906 556.095 680.577C556.095 693.248 551.161 705.161 542.201 714.121Z" fill="white"/>
<path d="M467.543 680.577C467.543 657.907 485.987 639.464 508.657 639.464C516.833 639.464 524.732 641.857 531.497 646.386C532.223 646.872 533.205 646.678 533.691 645.952C534.177 645.226 533.982 644.244 533.256 643.758C525.969 638.88 517.462 636.301 508.657 636.301C496.83 636.301 485.712 640.906 477.349 649.269C468.986 657.632 464.381 668.75 464.381 680.577C464.381 691.488 468.384 701.97 475.654 710.093C475.966 710.442 476.399 710.62 476.833 710.62C477.208 710.62 477.585 710.487 477.887 710.217C478.537 709.634 478.593 708.635 478.01 707.984C471.261 700.442 467.543 690.708 467.543 680.577Z" fill="white"/>
<path d="M545.475 655.977C544.989 655.252 544.007 655.057 543.282 655.543C542.556 656.029 542.361 657.011 542.847 657.737C547.376 664.502 549.77 672.4 549.77 680.577C549.77 703.247 531.326 721.69 508.656 721.69C499.251 721.69 490.057 718.433 482.769 712.518C482.091 711.968 481.095 712.072 480.545 712.75C479.995 713.428 480.098 714.424 480.776 714.974C488.626 721.344 498.528 724.853 508.656 724.853C520.483 724.853 531.602 720.247 539.964 711.884C548.327 703.522 552.932 692.403 552.932 680.577C552.932 671.772 550.354 663.265 545.475 655.977Z" fill="white"/>
<path d="M536.064 649.931C537.127 650.882 538.152 651.9 539.111 652.956C539.423 653.3 539.852 653.475 540.282 653.475C540.661 653.475 541.042 653.339 541.344 653.065C541.991 652.478 542.04 651.478 541.453 650.831C540.421 649.694 539.317 648.598 538.173 647.574C537.522 646.992 536.522 647.047 535.94 647.698C535.358 648.348 535.413 649.348 536.064 649.931Z" fill="white"/>
<path d="M508.656 650.532C509.53 650.532 510.238 649.824 510.238 648.951V644.207C510.238 643.334 509.53 642.626 508.656 642.626C507.783 642.626 507.075 643.334 507.075 644.207V648.951C507.075 649.824 507.783 650.532 508.656 650.532Z" fill="white"/>
<path d="M507.075 712.202V716.946C507.075 717.819 507.783 718.527 508.656 718.527C509.53 718.527 510.238 717.819 510.238 716.946V712.202C510.238 711.329 509.53 710.621 508.656 710.621C507.783 710.621 507.075 711.329 507.075 712.202Z" fill="white"/>
<path d="M478.612 680.577C478.612 679.704 477.904 678.995 477.031 678.995H472.287C471.414 678.995 470.706 679.704 470.706 680.577C470.706 681.45 471.414 682.158 472.287 682.158H477.031C477.904 682.158 478.612 681.45 478.612 680.577Z" fill="white"/>
<path d="M538.701 680.577C538.701 681.45 539.409 682.158 540.282 682.158H545.026C545.9 682.158 546.608 681.45 546.608 680.577C546.608 679.704 545.9 678.995 545.026 678.995H540.282C539.409 678.995 538.701 679.704 538.701 680.577Z" fill="white"/>
<path d="M494.213 652.398L491.841 648.289C491.405 647.533 490.438 647.274 489.681 647.71C488.925 648.147 488.666 649.114 489.103 649.87L491.475 653.979C491.768 654.486 492.299 654.77 492.846 654.77C493.114 654.77 493.386 654.701 493.635 654.558C494.391 654.121 494.65 653.154 494.213 652.398Z" fill="white"/>
<path d="M525.839 707.175C525.402 706.418 524.435 706.16 523.679 706.596C522.922 707.033 522.663 708 523.1 708.756L525.472 712.864C525.765 713.372 526.296 713.655 526.843 713.655C527.111 713.655 527.383 713.587 527.632 713.443C528.388 713.006 528.647 712.039 528.211 711.283L525.839 707.175Z" fill="white"/>
<path d="M477.161 700.343C477.429 700.343 477.701 700.275 477.95 700.131L482.059 697.759C482.815 697.322 483.074 696.355 482.637 695.599C482.201 694.843 481.233 694.584 480.477 695.02L476.369 697.392C475.613 697.829 475.354 698.796 475.79 699.552C476.083 700.059 476.614 700.343 477.161 700.343Z" fill="white"/>
<path d="M536.047 666.345C536.315 666.345 536.587 666.277 536.836 666.133L540.944 663.761C541.701 663.325 541.96 662.358 541.523 661.601C541.086 660.845 540.119 660.586 539.363 661.023L535.255 663.395C534.498 663.831 534.239 664.798 534.676 665.555C534.969 666.062 535.5 666.345 536.047 666.345Z" fill="white"/>
<path d="M527.632 647.71C526.875 647.274 525.908 647.533 525.472 648.289L523.1 652.398C522.663 653.154 522.922 654.121 523.679 654.558C523.928 654.701 524.199 654.77 524.468 654.77C525.014 654.77 525.546 654.486 525.839 653.979L528.211 649.87C528.647 649.114 528.388 648.147 527.632 647.71Z" fill="white"/>
<path d="M493.635 706.596C492.878 706.159 491.911 706.418 491.475 707.175L489.103 711.283C488.666 712.039 488.925 713.006 489.681 713.443C489.931 713.587 490.202 713.655 490.471 713.655C491.017 713.655 491.549 713.372 491.842 712.864L494.214 708.756C494.65 708 494.391 707.033 493.635 706.596Z" fill="white"/>
<path d="M535.255 697.759L539.363 700.131C539.612 700.275 539.884 700.343 540.152 700.343C540.699 700.343 541.23 700.059 541.523 699.552C541.96 698.796 541.701 697.829 540.944 697.392L536.836 695.02C536.08 694.583 535.113 694.843 534.676 695.599C534.239 696.355 534.498 697.322 535.255 697.759Z" fill="white"/>
<path d="M482.059 663.395L477.95 661.023C477.194 660.586 476.227 660.845 475.79 661.601C475.354 662.358 475.613 663.325 476.369 663.761L480.477 666.133C480.726 666.277 480.998 666.345 481.267 666.345C481.813 666.345 482.345 666.062 482.638 665.555C483.074 664.798 482.815 663.831 482.059 663.395Z" fill="white"/>
<path d="M519.665 701.223C519.933 701.223 520.205 701.154 520.454 701.01C521.211 700.574 521.47 699.607 521.033 698.85L512.261 683.656C512.971 682.827 513.401 681.751 513.401 680.577C513.401 678.515 512.079 676.758 510.238 676.105V655.276C510.238 654.403 509.53 653.695 508.657 653.695C507.784 653.695 507.076 654.403 507.076 655.276V676.105C505.235 676.758 503.913 678.515 503.913 680.577C503.913 683.193 506.041 685.321 508.657 685.321C508.953 685.321 509.242 685.292 509.523 685.24L518.294 700.432C518.587 700.939 519.119 701.223 519.665 701.223ZM507.076 680.577C507.076 679.705 507.785 678.995 508.657 678.995C509.529 678.995 510.238 679.705 510.238 680.577C510.238 681.449 509.529 682.158 508.657 682.158C507.785 682.158 507.076 681.449 507.076 680.577Z" fill="white"/>
</g>
<path d="M624.886 274.283H191.365C179.101 274.283 169.16 284.224 169.16 296.488V568.123C169.16 580.386 179.101 590.328 191.365 590.328H624.886C637.15 590.328 647.092 580.386 647.092 568.123V296.488C647.092 284.224 637.15 274.283 624.886 274.283Z" fill="#455A64"/>
<path d="M149.18 566.964H666.981V567.498C666.981 574.693 664.123 581.593 659.036 586.68C653.948 591.768 647.048 594.626 639.853 594.626H176.308C169.113 594.626 162.213 591.768 157.125 586.68C152.038 581.593 149.18 574.693 149.18 567.498V566.964Z" fill="#3B4A52"/>
<path d="M632.933 286.841H181.993V553.735H632.933V286.841Z" fill="#E0E0E0"/>
<path d="M361.009 566.964L367.441 577.191H457.848L463.823 566.964H361.009Z" fill="#455A64"/>
<path d="M612.207 304.627H197.036V553.644H612.207V304.627Z" fill="#FAFAFA"/>
<path d="M214.76 316.895C214.763 317.586 214.561 318.263 214.18 318.839C213.798 319.415 213.254 319.864 212.617 320.131C211.979 320.397 211.277 320.469 210.599 320.336C209.921 320.203 209.298 319.871 208.808 319.384C208.318 318.897 207.984 318.275 207.848 317.597C207.713 316.92 207.781 316.217 208.044 315.579C208.308 314.94 208.756 314.394 209.33 314.01C209.904 313.626 210.579 313.421 211.27 313.421C212.193 313.421 213.079 313.786 213.733 314.437C214.387 315.089 214.756 315.972 214.76 316.895Z" fill="#455A64"/>
<path d="M228.965 316.896C228.968 317.587 228.765 318.264 228.383 318.84C228 319.416 227.455 319.866 226.817 320.132C226.179 320.398 225.476 320.469 224.797 320.334C224.119 320.2 223.496 319.868 223.007 319.379C222.518 318.89 222.185 318.266 222.051 317.588C221.917 316.909 221.987 316.206 222.253 315.568C222.519 314.93 222.969 314.385 223.545 314.002C224.121 313.62 224.798 313.418 225.49 313.421C226.411 313.421 227.295 313.787 227.947 314.438C228.598 315.09 228.965 315.974 228.965 316.896Z" fill="#455A64"/>
<path d="M243.184 316.896C243.187 317.586 242.985 318.263 242.604 318.839C242.222 319.415 241.678 319.864 241.04 320.131C240.403 320.397 239.701 320.469 239.023 320.336C238.345 320.203 237.721 319.872 237.232 319.384C236.742 318.897 236.408 318.275 236.272 317.597C236.136 316.92 236.205 316.217 236.468 315.579C236.732 314.94 237.179 314.394 237.754 314.01C238.328 313.626 239.003 313.421 239.694 313.421C240.152 313.419 240.605 313.507 241.029 313.681C241.452 313.854 241.837 314.11 242.161 314.433C242.485 314.756 242.743 315.14 242.918 315.562C243.094 315.985 243.184 316.438 243.184 316.896Z" fill="#455A64"/>
<path d="M612.207 332.136C612.207 332.365 519.239 332.532 404.629 332.532C290.019 332.532 197.036 332.365 197.036 332.136C197.036 331.908 290.004 331.74 404.629 331.74C519.254 331.74 612.207 331.923 612.207 332.136Z" fill="#455A64"/>
<path d="M647.092 567.178H169.16V568.702H647.092V567.178Z" fill="#455A64"/>
<path d="M318.022 460.036H227.218V466.117H318.022V460.036Z" fill="#455A64"/>
<path d="M439.164 368.79H348.36V374.871H439.164V368.79Z" fill="#455A64"/>
<path d="M574.227 391.422C574.227 391.636 523.658 391.819 461.294 391.819C398.929 391.819 348.36 391.636 348.36 391.422C348.36 391.209 398.914 391.011 461.294 391.011C523.674 391.011 574.227 391.194 574.227 391.422Z" fill="#455A64"/>
<path d="M574.227 404.682C574.227 404.895 523.658 405.078 461.294 405.078C398.929 405.078 348.36 404.895 348.36 404.682C348.36 404.468 398.914 404.285 461.294 404.285C523.674 404.285 574.227 404.514 574.227 404.682Z" fill="#455A64"/>
<path d="M574.227 417.941C574.227 418.17 523.658 418.337 461.294 418.337C398.929 418.337 348.36 418.17 348.36 417.941C348.36 417.712 398.914 417.545 461.294 417.545C523.674 417.545 574.227 417.728 574.227 417.941Z" fill="#455A64"/>
<path d="M574.227 431.216C574.227 431.429 523.658 431.612 461.294 431.612C398.929 431.612 348.36 431.429 348.36 431.216C348.36 431.002 398.914 430.804 461.294 430.804C523.674 430.804 574.227 430.987 574.227 431.216Z" fill="#455A64"/>
<path d="M574.227 444.475C574.227 444.688 523.658 444.871 461.294 444.871C398.929 444.871 348.36 444.688 348.36 444.475C348.36 444.262 398.914 444.079 461.294 444.079C523.674 444.079 574.227 444.246 574.227 444.475Z" fill="#455A64"/>
<path d="M436.528 457.734C436.528 457.948 416.791 458.131 392.452 458.131C368.112 458.131 348.36 457.948 348.36 457.734C348.36 457.521 368.173 457.338 392.452 457.338C416.73 457.338 436.528 457.521 436.528 457.734Z" fill="#455A64"/>
<path d="M572.565 483.476C572.565 483.705 539.325 483.872 498.343 483.872C457.361 483.872 424.121 483.705 424.121 483.476C424.121 483.247 457.346 483.08 498.343 483.08C539.341 483.08 572.565 483.263 572.565 483.476Z" fill="#455A64"/>
<path d="M572.565 497.558C572.565 497.772 539.325 497.955 498.343 497.955C457.361 497.955 424.121 497.772 424.121 497.558C424.121 497.345 457.346 497.162 498.343 497.162C539.341 497.162 572.565 497.345 572.565 497.558Z" fill="#455A64"/>
<path d="M572.565 511.641C572.565 511.854 539.325 512.037 498.343 512.037C457.361 512.037 424.121 511.854 424.121 511.641C424.121 511.427 457.346 511.244 498.343 511.244C539.341 511.244 572.565 511.412 572.565 511.641Z" fill="#455A64"/>
<path d="M572.565 525.723C572.565 525.936 539.325 526.119 498.343 526.119C457.361 526.119 424.121 525.936 424.121 525.723C424.121 525.51 457.346 525.327 498.343 525.327C539.341 525.327 572.565 525.494 572.565 525.723Z" fill="#455A64"/>
<path d="M317.138 482.135C317.138 482.348 297.325 482.531 272.94 482.531C248.555 482.531 228.742 482.348 228.742 482.135C228.742 481.921 248.555 481.738 272.94 481.738C297.325 481.738 317.138 481.906 317.138 482.135Z" fill="#455A64"/>
<path d="M317.138 493.184C317.138 493.413 297.325 493.58 272.94 493.58C248.555 493.58 228.742 493.413 228.742 493.184C228.742 492.956 248.555 492.788 272.94 492.788C297.325 492.788 317.138 492.91 317.138 493.184Z" fill="#455A64"/>
<path d="M317.138 504.249C317.138 504.462 297.325 504.645 272.94 504.645C248.555 504.645 228.742 504.462 228.742 504.249C228.742 504.036 248.555 503.853 272.94 503.853C297.325 503.853 317.138 504.036 317.138 504.249Z" fill="#455A64"/>
<path d="M317.138 515.298C317.138 515.527 297.325 515.695 272.94 515.695C248.555 515.695 228.742 515.527 228.742 515.298C228.742 515.07 248.555 514.902 272.94 514.902C297.325 514.902 317.138 515.085 317.138 515.298Z" fill="#455A64"/>
<path d="M317.138 526.439C317.138 526.653 297.325 526.836 272.94 526.836C248.555 526.836 228.742 526.653 228.742 526.439C228.742 526.226 248.555 526.043 272.94 526.043C297.325 526.043 317.138 526.15 317.138 526.439Z" fill="#455A64"/>
<path d="M412.721 476.755H348.299V539.089H412.721V476.755Z" fill="#E0E0E0"/>
<path d="M273.509 395.142L225.135 410.84C220.966 398.003 222.066 384.035 228.193 372.008C234.321 359.981 244.974 350.881 257.811 346.708C262.869 345.014 268.174 344.169 273.509 344.208V395.142Z" fill="#FF0000"/>
<path d="M273.509 395.142L303.427 436.292C292.508 444.22 278.888 447.487 265.561 445.375C252.234 443.263 240.291 435.945 232.359 425.029C229.184 420.731 226.743 415.936 225.135 410.84L273.509 395.142Z" fill="#E0E0E0"/>
<path d="M273.509 395.142L321.913 379.414C325.36 389.619 325.427 400.663 322.102 410.909C318.778 421.154 312.239 430.056 303.457 436.292L273.509 395.142Z" fill="#59AAD1"/>
<path d="M273.509 395.142V344.239C284.287 344.116 294.818 347.472 303.537 353.809C312.257 360.145 318.701 369.125 321.913 379.414L273.509 395.142Z" fill="#E0E0E0"/>
<path d="M273.585 426.843C291.11 426.843 305.316 412.636 305.316 395.112C305.316 377.587 291.11 363.381 273.585 363.381C256.06 363.381 241.854 377.587 241.854 395.112C241.854 412.636 256.06 426.843 273.585 426.843Z" fill="white"/>
<path d="M842.585 120.193H581.158C568.349 120.193 557.965 130.577 557.965 143.386V329.739C557.965 342.548 568.349 352.932 581.158 352.932H842.585C855.394 352.932 865.778 342.548 865.778 329.739V143.386C865.778 130.577 855.394 120.193 842.585 120.193Z" fill="white" stroke="#455A64" stroke-width="3" stroke-linecap="round" stroke-linejoin="round"/>
<path d="M573.622 329.917H859.813" stroke="#455A64" stroke-width="0.5" stroke-miterlimit="10"/>
<path d="M573.622 329.917V334.154" stroke="#455A64" stroke-width="0.5" stroke-miterlimit="10"/>
<path d="M592.701 329.917V334.154" stroke="#455A64" stroke-width="0.5" stroke-miterlimit="10"/>
<path d="M611.781 329.917V334.154" stroke="#455A64" stroke-width="0.5" stroke-miterlimit="10"/>
<path d="M630.86 329.917V334.154" stroke="#455A64" stroke-width="0.5" stroke-miterlimit="10"/>
<path d="M649.939 329.917V334.154" stroke="#455A64" stroke-width="0.5" stroke-miterlimit="10"/>
<path d="M669.019 329.917V334.154" stroke="#455A64" stroke-width="0.5" stroke-miterlimit="10"/>
<path d="M688.099 329.917V334.154" stroke="#455A64" stroke-width="0.5" stroke-miterlimit="10"/>
<path d="M707.178 329.917V334.154" stroke="#455A64" stroke-width="0.5" stroke-miterlimit="10"/>
<path d="M726.257 329.917V334.154" stroke="#455A64" stroke-width="0.5" stroke-miterlimit="10"/>
<path d="M745.336 329.917V334.154" stroke="#455A64" stroke-width="0.5" stroke-miterlimit="10"/>
<path d="M764.416 329.917V334.154" stroke="#455A64" stroke-width="0.5" stroke-miterlimit="10"/>
<path d="M783.495 329.917V334.154" stroke="#455A64" stroke-width="0.5" stroke-miterlimit="10"/>
<path d="M802.574 329.917V334.154" stroke="#455A64" stroke-width="0.5" stroke-miterlimit="10"/>
<path d="M821.654 329.917V334.154" stroke="#455A64" stroke-width="0.5" stroke-miterlimit="10"/>
<path d="M840.733 329.917V334.154" stroke="#455A64" stroke-width="0.5" stroke-miterlimit="10"/>
<path d="M859.813 329.917V334.154" stroke="#455A64" stroke-width="0.5" stroke-miterlimit="10"/>
<path d="M583.162 326.466H850.273V289.551L831.372 253.016C831.249 252.759 831.164 252.485 831.118 252.204L814.322 143.842C814.322 143.304 814.108 142.788 813.727 142.407C813.347 142.026 812.831 141.813 812.292 141.813C811.754 141.813 811.238 142.026 810.857 142.407C810.476 142.788 810.262 143.304 810.262 143.842L793.162 276.129C793.081 276.763 792.764 277.343 792.274 277.753L775.808 290.439C775.571 290.615 775.296 290.735 775.005 290.788C774.714 290.841 774.414 290.827 774.13 290.746C773.845 290.665 773.583 290.52 773.364 290.321C773.145 290.123 772.974 289.877 772.865 289.602L756.272 255.375C756.149 255.054 755.942 254.772 755.672 254.56C755.402 254.347 755.08 254.211 754.739 254.167C754.398 254.123 754.052 254.171 753.736 254.308C753.421 254.445 753.149 254.665 752.948 254.944L735.797 277.144L716.718 301.755L697.638 277.144L680.817 255.452C680.596 255.148 680.292 254.916 679.941 254.783C679.591 254.65 679.209 254.623 678.843 254.704C678.477 254.784 678.142 254.97 677.88 255.238C677.618 255.506 677.439 255.845 677.367 256.213L659.606 311.599L640.527 212.878L621.448 321.443L602.368 306.677L587.145 263.799C586.283 261.262 583.188 262.074 583.188 264.712L583.162 326.466Z" fill="#FF0000"/>
<path d="M850.273 326.543H583.162V294.904L602.039 263.494C602.171 263.277 602.257 263.036 602.292 262.784L619.088 169.594C619.18 169.12 619.434 168.693 619.807 168.385C620.18 168.078 620.648 167.91 621.131 167.91C621.614 167.91 622.082 168.078 622.454 168.385C622.827 168.693 623.081 169.12 623.173 169.594L640.248 283.36C640.356 283.928 640.684 284.43 641.161 284.756L657.627 295.716C657.864 295.875 658.131 295.983 658.411 296.033C658.691 296.083 658.978 296.074 659.255 296.008C659.532 295.941 659.792 295.817 660.018 295.645C660.245 295.472 660.433 295.255 660.571 295.006L677.138 265.575C677.299 265.29 677.525 265.048 677.799 264.869C678.072 264.689 678.384 264.578 678.709 264.543C679.034 264.508 679.362 264.551 679.667 264.669C679.972 264.787 680.244 264.976 680.462 265.22L697.638 284.248L716.718 305.408L735.797 284.248L752.593 265.6C752.832 265.339 753.135 265.143 753.471 265.031C753.807 264.92 754.167 264.896 754.515 264.962C754.863 265.028 755.188 265.182 755.46 265.409C755.732 265.636 755.942 265.929 756.069 266.26L773.829 313.882H792.908L811.988 322.356L831.067 309.671L846.29 272.806C846.458 272.346 846.785 271.961 847.212 271.721C847.639 271.481 848.137 271.401 848.618 271.496C849.098 271.591 849.529 271.854 849.833 272.239C850.136 272.623 850.292 273.103 850.273 273.592V326.543Z" fill="#59AAD1"/>
<path d="M727.805 152.316H786.92" stroke="#455A64" stroke-linecap="round" stroke-linejoin="round"/>
<path d="M727.805 166.169H786.92" stroke="#455A64" stroke-linecap="round" stroke-linejoin="round"/>
<path d="M727.805 179.997H786.92" stroke="#455A64" stroke-linecap="round" stroke-linejoin="round"/>
<path d="M727.805 193.85H786.92" stroke="#455A64" stroke-linecap="round" stroke-linejoin="round"/>
<path d="M727.805 207.677H786.92" stroke="#455A64" stroke-linecap="round" stroke-linejoin="round"/>
<path d="M727.805 221.53H786.92" stroke="#455A64" stroke-linecap="round" stroke-linejoin="round"/>
<path d="M714.358 152.316H721.767" stroke="#455A64" stroke-linecap="round" stroke-linejoin="round"/>
<path d="M714.358 166.169H721.767" stroke="#455A64" stroke-linecap="round" stroke-linejoin="round"/>
<path d="M714.358 179.997H721.767" stroke="#455A64" stroke-linecap="round" stroke-linejoin="round"/>
<path d="M714.358 193.85H721.767" stroke="#455A64" stroke-linecap="round" stroke-linejoin="round"/>
<path d="M714.358 207.677H721.767" stroke="#455A64" stroke-linecap="round" stroke-linejoin="round"/>
<path d="M714.358 221.53H721.767" stroke="#455A64" stroke-linecap="round" stroke-linejoin="round"/>
<rect x="603.639" y="423.434" width="246.947" height="306.385" rx="15.5" fill="white" stroke="#455A64" stroke-width="3"/>
<rect x="618.903" y="438.699" width="216.417" height="117.353" rx="13" fill="#455A64"/>
<rect x="754.545" y="464.608" width="56.3905" height="65.5349" rx="10" fill="#E0E0E0"/>
<rect x="763.689" y="493.565" width="38.1017" height="28.9573" rx="10" fill="#B6B6B6"/>
<rect x="644.812" y="464.608" width="71.6311" height="65.5349" rx="1" fill="#59AAD1"/>
<rect x="634.145" y="585.009" width="22.861" height="22.861" rx="1" fill="#E0E0E0"/>
<rect x="634.145" y="644.448" width="22.861" height="22.861" rx="1" fill="#E0E0E0"/>
<rect x="634.145" y="615.491" width="22.861" height="22.861" rx="1" fill="#E0E0E0"/>
<rect x="634.145" y="674.929" width="22.861" height="22.861" rx="1" fill="#E0E0E0"/>
<rect x="664.626" y="585.009" width="22.861" height="22.861" rx="1" fill="#E0E0E0"/>
<rect x="664.626" y="644.448" width="22.861" height="22.861" rx="1" fill="#E0E0E0"/>
<rect x="664.626" y="615.491" width="22.861" height="22.861" rx="1" fill="#E0E0E0"/>
<rect x="664.626" y="674.929" width="22.861" height="22.861" rx="1" fill="#E0E0E0"/>
<rect x="693.583" y="585.009" width="22.861" height="22.861" rx="1" fill="#E0E0E0"/>
<rect x="693.583" y="644.448" width="22.861" height="22.861" rx="1" fill="#E0E0E0"/>
<rect x="693.583" y="615.491" width="22.861" height="22.861" rx="1" fill="#E0E0E0"/>
<rect x="693.583" y="674.929" width="22.861" height="22.861" rx="1" fill="#E0E0E0"/>
<rect x="724.064" y="585.009" width="22.861" height="22.861" rx="1" fill="#E0E0E0"/>
<rect x="724.064" y="644.448" width="22.861" height="22.861" rx="1" fill="#E0E0E0"/>
<rect x="724.064" y="615.491" width="22.861" height="22.861" rx="1" fill="#E0E0E0"/>
<rect x="783.503" y="629.207" width="22.861" height="22.861" rx="1" fill="#E0E0E0"/>
<rect x="724.064" y="674.929" width="22.861" height="22.861" rx="1" fill="#E0E0E0"/>
<path d="M176.659 488.018L89.2012 487.625C86.6981 487.62 84.2207 487.135 81.9114 486.2C79.6021 485.265 77.5063 483.897 75.7444 482.175C73.9826 480.454 72.5893 478.412 71.6446 476.167C70.7 473.922 70.2225 471.519 70.2397 469.095L71.1675 257.366C71.1807 254.946 71.6864 252.552 72.6554 250.322C73.6244 248.091 75.0379 246.068 76.815 244.366C78.5921 242.665 80.6979 241.319 83.0123 240.407C85.3266 239.494 87.804 239.032 90.3029 239.046L177.761 239.425C182.805 239.444 187.636 241.399 191.193 244.863C194.751 248.326 196.744 253.014 196.737 257.899L195.809 469.643C195.801 472.068 195.3 474.468 194.332 476.705C193.365 478.942 191.952 480.972 190.173 482.679C188.394 484.386 186.284 485.737 183.965 486.653C181.646 487.569 179.163 488.033 176.659 488.018Z" fill="#455A64"/>
<path d="M177.645 246.795H160.684C160.132 246.803 159.588 246.915 159.081 247.127C158.575 247.338 158.117 247.645 157.733 248.028C157.349 248.411 157.047 248.865 156.845 249.361C156.642 249.858 156.543 250.388 156.552 250.922V253.898C156.564 254.976 156.137 256.015 155.364 256.79C154.591 257.565 153.533 258.014 152.421 258.039L119.354 257.885C118.799 257.872 118.252 257.753 117.744 257.534C117.237 257.314 116.78 257 116.4 256.608C116.019 256.216 115.723 255.755 115.529 255.251C115.334 254.747 115.245 254.211 115.266 253.674V250.67C115.285 250.133 115.195 249.597 114.999 249.094C114.804 248.592 114.508 248.131 114.128 247.74C113.748 247.348 113.291 247.033 112.785 246.813C112.279 246.594 111.733 246.473 111.178 246.458H105.205H90.3609C88.6114 246.449 86.8771 246.774 85.2571 247.413C83.6371 248.053 82.1631 248.996 80.9193 250.187C79.6755 251.379 78.6862 252.796 78.0079 254.357C77.3296 255.919 76.9755 257.595 76.9661 259.289L76.0528 465.965C76.0451 469.388 77.4408 472.673 79.9334 475.1C82.426 477.527 85.8115 478.896 89.3461 478.908L176.63 479.301C180.163 479.316 183.559 477.974 186.072 475.569C188.586 473.164 190.012 469.892 190.039 466.47L190.938 259.794C190.951 258.094 190.618 256.408 189.956 254.834C189.294 253.259 188.318 251.826 187.082 250.618C185.847 249.41 184.377 248.451 182.758 247.795C181.138 247.139 179.4 246.799 177.645 246.795Z" fill="white"/>
<path d="M176.21 387.424H89.8394V393.025H176.21V387.424Z" fill="#455A64"/>
<path d="M173.136 409.449C173.136 409.646 154.697 409.814 131.966 409.814C109.235 409.814 90.7812 409.646 90.7812 409.449C90.7812 409.253 109.221 409.084 131.966 409.084C154.711 409.084 173.136 409.253 173.136 409.449Z" fill="#455A64"/>
<path d="M173.136 419.641C173.136 419.837 154.697 420.006 131.966 420.006C109.235 420.006 90.7812 419.837 90.7812 419.641C90.7812 419.444 109.221 419.276 131.966 419.276C154.711 419.276 173.136 419.43 173.136 419.641Z" fill="#455A64"/>
<path d="M173.136 429.79C173.136 429.986 154.697 430.155 131.966 430.155C109.235 430.155 90.7812 429.986 90.7812 429.79C90.7812 429.593 109.221 429.425 131.966 429.425C154.711 429.425 173.136 429.621 173.136 429.79Z" fill="#455A64"/>
<path d="M173.136 440.009C173.136 440.206 154.697 440.374 131.966 440.374C109.235 440.374 90.7812 440.206 90.7812 440.009C90.7812 439.813 109.221 439.644 131.966 439.644C154.711 439.644 173.136 439.799 173.136 440.009Z" fill="#455A64"/>
<path d="M173.136 450.187C173.136 450.397 154.697 450.552 131.966 450.552C109.235 450.552 90.7812 450.397 90.7812 450.187C90.7812 449.976 109.221 449.822 131.966 449.822C154.711 449.822 173.136 449.99 173.136 450.187Z" fill="#455A64"/>
<path d="M174.311 461.74C174.311 461.936 155.871 462.105 133.14 462.105C110.41 462.105 91.9556 461.936 91.9556 461.74C91.9556 461.543 110.395 461.375 133.14 461.375C155.885 461.375 174.311 461.529 174.311 461.74Z" fill="#455A64"/>
<path d="M156.856 275.544H90.5342V280.864H156.856V275.544Z" fill="#FF0000"/>
<path d="M142.591 286.929H90.5342V292.249H142.591V286.929Z" fill="#59AAD1"/>
<path d="M128.791 298.313H90.5342V303.633H128.791V298.313Z" fill="#E0E0E0"/>
<path d="M144.896 309.698H90.5342V315.018H144.896V309.698Z" fill="#FF0000"/>
<path d="M116.367 321.082H90.5342V326.402H116.367V321.082Z" fill="#59AAD1"/>
<path d="M156.856 332.481H90.5342V337.801H156.856V332.481Z" fill="#E0E0E0"/>
<path d="M139.373 343.865H90.5342V349.185H139.373V343.865Z" fill="#FF0000"/>
<path d="M133.212 355.25H90.5342V360.57H133.212V355.25Z" fill="#59AAD1"/>
<g opacity="0.3">
<path d="M905.366 36.8527L899.505 36.3884C898.928 34.5989 898.213 32.8492 897.371 31.1658L901.262 26.6951C903.651 23.9512 903.506 19.7869 900.934 17.2146L894.845 11.1248C892.298 8.57794 888.156 8.41427 885.416 10.752L880.943 14.5688C879.269 13.7106 877.526 12.9781 875.741 12.3822L875.332 6.47157C875.08 2.8426 872.033 0 868.396 0H859.783C856.181 0 853.137 2.81268 852.853 6.40329L852.388 12.2643C850.477 12.881 848.613 13.6532 846.827 14.5688L842.354 10.752C839.614 8.41427 835.472 8.57794 832.925 11.1248L826.836 17.2148C824.263 19.7871 824.119 23.9514 826.507 26.6953L830.399 31.1659C829.557 32.8492 828.842 34.5989 828.265 36.3886L822.403 36.8528C818.813 37.1372 816 40.1814 816 43.7832V52.3958C816 56.0334 818.843 59.0798 822.472 59.3314L828.382 59.7409C828.978 61.5259 829.711 63.2685 830.569 64.9424L826.752 69.4157C824.414 72.1558 824.578 76.2973 827.125 78.8441L833.215 84.9339C835.787 87.5061 839.951 87.6503 842.695 85.262C843.293 84.7413 843.356 83.8339 842.836 83.2353C842.315 82.6368 841.407 82.5741 840.809 83.0949C839.199 84.4962 836.755 84.4115 835.246 82.9024L829.156 76.8126C827.662 75.3182 827.566 72.8881 828.938 71.2804L833.388 66.0647C833.775 65.6113 833.841 64.9658 833.555 64.4426C832.429 62.3845 831.512 60.2023 830.828 57.9568C830.655 57.3869 830.148 56.983 829.553 56.9419L822.67 56.4649C820.541 56.3173 818.873 54.5297 818.873 52.3954V43.7829C818.873 41.6696 820.523 39.8832 822.63 39.7164L829.464 39.1751C830.058 39.1279 830.561 38.719 830.729 38.1472C831.389 35.8968 832.284 33.7059 833.39 31.6349C833.671 31.1091 833.598 30.4647 833.206 30.015L828.675 24.809C827.273 23.1991 827.358 20.7557 828.867 19.2464L834.957 13.1566C836.452 11.6622 838.881 11.5661 840.489 12.9379L845.705 17.388C846.158 17.775 846.804 17.8416 847.327 17.5554C849.487 16.3734 851.782 15.4225 854.148 14.7289C854.72 14.5613 855.128 14.0578 855.176 13.4637L855.717 6.63019C855.884 4.52344 857.67 2.87309 859.783 2.87309H868.396C870.53 2.87309 872.318 4.54102 872.465 6.67021L872.942 13.5535C872.984 14.1477 873.387 14.655 873.957 14.8284C876.203 15.5117 878.385 16.4292 880.443 17.5552C880.966 17.8414 881.611 17.7748 882.065 17.3878L887.281 12.9377C888.889 11.5659 891.319 11.662 892.813 13.1564L898.903 19.2462C900.412 20.7555 900.497 23.1989 899.095 24.8089L894.564 30.0154C894.172 30.4651 894.099 31.1095 894.38 31.6353C895.486 33.7063 896.381 35.8974 897.041 38.1476C897.209 38.7194 897.712 39.1283 898.306 39.1754L905.14 39.7168C907.247 39.8836 908.897 41.6698 908.897 43.7832V52.3958C908.897 54.53 907.229 56.3177 905.1 56.4653L898.216 56.9422C897.622 56.9834 897.115 57.3872 896.941 57.9572C896.258 60.2027 895.341 62.385 894.215 64.4429C893.928 64.9661 893.995 65.6115 894.382 66.065L898.832 71.2806C900.204 72.8883 900.108 75.3184 898.614 76.8128L892.524 82.9026C891.014 84.4119 888.571 84.4964 886.961 83.095L881.755 78.5634C881.305 78.1721 880.66 78.0991 880.135 78.3797C878.166 79.4311 876.088 80.2928 873.957 80.941C873.387 81.1146 872.984 81.6217 872.942 82.2159L872.465 89.0992C872.318 91.2284 870.53 92.8965 868.396 92.8965H859.783C857.67 92.8965 855.884 91.2461 855.717 89.1394L855.176 82.3059C855.128 81.7118 854.72 81.2085 854.148 81.0409C851.897 80.3808 849.706 79.4857 847.635 78.3797C846.936 78.0061 846.065 78.2703 845.691 78.97C845.318 79.67 845.582 80.5403 846.282 80.914C848.233 81.9559 850.283 82.8255 852.388 83.5051L852.852 89.3663C853.137 92.9571 856.181 95.7698 859.783 95.7698H868.396C872.033 95.7698 875.08 92.927 875.331 89.298L875.741 83.3876C877.404 82.8321 879.033 82.1566 880.604 81.3712L885.075 85.2624C887.818 87.6508 891.983 87.5066 894.555 84.9343L900.645 78.8445C903.192 76.2976 903.355 72.1562 901.018 69.4161L897.201 64.9427C898.059 63.2688 898.791 61.5261 899.387 59.7412L905.298 59.3318C908.927 59.0798 911.77 56.0334 911.77 52.3958V43.7832C911.77 40.1814 908.957 37.1372 905.366 36.8527Z" fill="white"/>
<path d="M873.347 31.7726C872.663 31.3702 871.782 31.5984 871.38 32.2823C870.978 32.9659 871.206 33.8466 871.89 34.2489C876.704 37.0814 879.694 42.3065 879.694 47.8851C879.694 56.6022 872.602 63.6942 863.885 63.6942C855.168 63.6942 848.076 56.602 848.076 47.8849C848.076 39.1678 855.168 32.0758 863.885 32.0758C864.679 32.0758 865.322 31.4327 865.322 30.6392C865.322 29.8458 864.679 29.2027 863.885 29.2027C853.584 29.2027 845.203 37.5835 845.203 47.8849C845.203 58.1863 853.584 66.5671 863.885 66.5671C874.187 66.5671 882.568 58.1863 882.568 47.8849C882.568 41.2929 879.034 35.1189 873.347 31.7726Z" fill="white"/>
</g>
</svg>
